<?xml version="1.0" encoding="UTF-8"?>
<!DOCTYPE svg PUBLIC "-//W3C//DTD SVG 1.0//EN" "http://www.w3.org/TR/2001/REC-SVG-20010904/DTD/svg10.dtd">
<!-- Creator: CorelDRAW 2020 (64 Bit Versão de avaliação) -->
<svg xmlns="http://www.w3.org/2000/svg" xml:space="preserve" width="72.7182mm" height="140mm" version="1.0" style="shape-rendering:geometricPrecision; text-rendering:geometricPrecision; image-rendering:optimizeQuality; fill-rule:evenodd; clip-rule:evenodd"
viewBox="0 0 394.46 759.43"
 xmlns:xlink="http://www.w3.org/1999/xlink"
 xmlns:xodm="http://www.corel.com/coreldraw/odm/2003">
 <defs>
  <style type="text/css">
   <![CDATA[
    .fil0 {fill:#201E1E}
   ]]>
  </style>
 </defs>
 <g id="Camada_x0020_1">
  <metadata id="CorelCorpID_0Corel-Layer"/>
  <g id="_2417223259968">
   <path class="fil0" d="M116.68 277.96c-0.84,0.44 -2.46,0.27 -3.44,0.27l-112.99 0 0 134.66c2.25,0 114.25,-0.32 116,0.11l0.43 0.15 -0.01 346.28 139.42 0 0 -346.38 116.26 0 17.3 -135 -133.57 0c0,-24.22 0,-48.45 0,-72.67 0,-22.58 -0.32,-45.92 12.03,-60.56 12.88,-15.28 33.67,-18.5 53.91,-18.65 24.1,-0.18 48.27,-0.04 72.43,-0.04l0 -120.34c-0.49,-0.7 -0.66,-0.52 -1.76,-0.64l-30.29 -2.65c-28.85,-1.88 -74.38,-4.18 -101.02,-0.69 -43.45,5.7 -73.64,22.01 -96.43,43.94 -4.04,3.88 -8.9,9.71 -12.46,14.12 -17.65,21.91 -28.58,51.89 -33.05,80.69 -3.45,22.22 -2.78,44.59 -2.78,67.37 0,23.24 -0.39,46.82 0.01,70.02z"/>
   <path class="fil0" d="M116.68 413.15l-0.43 -0.15c-1.76,-0.44 -113.75,-0.11 -116,-0.11l0 -134.66 112.99 0c0.99,0 2.61,0.18 3.44,-0.27l-116.68 0.08 0.1 135.11 116.57 0z"/>
  </g>
 </g>
</svg>
