<?xml version="1.0" encoding="UTF-8"?>
<!DOCTYPE svg PUBLIC "-//W3C//DTD SVG 1.0//EN" "http://www.w3.org/TR/2001/REC-SVG-20010904/DTD/svg10.dtd">
<!-- Creator: CorelDRAW 2020 (64 Bit Versão de avaliação) -->
<svg xmlns="http://www.w3.org/2000/svg" xml:space="preserve" width="140.2mm" height="140.2mm" version="1.0" style="shape-rendering:geometricPrecision; text-rendering:geometricPrecision; image-rendering:optimizeQuality; fill-rule:evenodd; clip-rule:evenodd"
viewBox="0 0 1222.12 1222.12"
 xmlns:xlink="http://www.w3.org/1999/xlink"
 xmlns:xodm="http://www.corel.com/coreldraw/odm/2003">
 <defs>
  <style type="text/css">
   <![CDATA[
    .str0 {stroke:#373435;stroke-width:1.74;stroke-miterlimit:22.9256}
    .fil0 {fill:#201E1E}
   ]]>
  </style>
 </defs>
 <g id="Camada_x0020_1">
  <metadata id="CorelCorpID_0Corel-Layer"/>
  <g id="_2417241085904">
   <g>
    <path class="fil0" d="M406.08 620.6c0,-48.67 9.26,-89.77 36.74,-127.73 35.7,-49.33 96.58,-86.79 158.71,-86.79 64.76,0 110.4,16.25 154.34,60.18 16.39,16.39 31.78,34.66 40.81,56.92 26.48,65.35 26.48,110.41 0,175.76 -15.14,37.38 -61.74,83.17 -97.73,97.73 -65.4,26.45 -110.35,26.5 -175.76,0 -28.98,-11.74 -61.23,-41.5 -79.35,-66.05 -20.25,-27.44 -37.76,-73.31 -37.76,-110.02zm-109.64 -26.22c0,38.55 -0.73,58.01 10.01,97.25 9.4,34.34 27.1,72.2 47.2,100.58 32.47,45.8 71.29,77.3 121.56,102.5 16.76,8.4 32.93,14.64 53.42,20.47 50.54,14.39 112.39,14.35 163.02,0.51 71.33,-19.51 132.81,-62.68 175.85,-122.09 11,-15.18 18.84,-29.95 27.22,-46.67 84.84,-169.25 -5.42,-383.74 -201.57,-439.61 -89.48,-25.48 -188.51,-6.64 -263.22,46.32 -28.1,19.92 -54.91,46.77 -75.28,74.89 -30.82,42.54 -58.21,111.81 -58.21,165.85z"/>
    <path class="fil0" d="M858.95 282.13c0,25.69 7.21,41.66 21.99,56.66 7.62,7.73 9.38,10.59 20.02,15.74 56.19,27.17 117.69,-10.22 117.69,-72.4 0,-43.49 -37.24,-77.07 -78.86,-78.23 -24.27,-0.68 -45.78,12.14 -59.17,26.01l-13.8 19.57c-4.19,9.01 -7.87,20.39 -7.87,32.66z"/>
   </g>
   <path class="fil0 str0" d="M327.01 0.87l568.1 0c179.38,0 326.14,146.76 326.14,326.14l0 568.1c0,179.38 -146.76,326.14 -326.14,326.14l-568.1 0c-179.38,0 -326.14,-146.76 -326.14,-326.14l0 -568.1c0,-179.38 146.76,-326.14 326.14,-326.14zm-12.66 118.01l591.81 0c111.16,0 202.1,90.95 202.1,202.1l0 591.81c0,111.16 -90.95,202.1 -202.1,202.1l-591.81 0c-111.16,0 -202.1,-90.95 -202.1,-202.1l0 -591.81c0,-111.16 90.95,-202.1 202.1,-202.1z"/>
  </g>
 </g>
</svg>
