<?xml version="1.0" encoding="UTF-8"?>
<!DOCTYPE svg PUBLIC "-//W3C//DTD SVG 1.0//EN" "http://www.w3.org/TR/2001/REC-SVG-20010904/DTD/svg10.dtd">
<!-- Creator: CorelDRAW 2020 (64 Bit Versão de avaliação) -->
<svg xmlns="http://www.w3.org/2000/svg" xml:space="preserve" width="140mm" height="140mm" version="1.0" style="shape-rendering:geometricPrecision; text-rendering:geometricPrecision; image-rendering:optimizeQuality; fill-rule:evenodd; clip-rule:evenodd"
viewBox="0 0 2100.92 2100.92"
 xmlns:xlink="http://www.w3.org/1999/xlink"
 xmlns:xodm="http://www.corel.com/coreldraw/odm/2003">
 <defs>
  <style type="text/css">
   <![CDATA[
    .fil0 {fill:#201E1E}
   ]]>
  </style>
 </defs>
 <g id="Camada_x0020_1">
  <metadata id="CorelCorpID_0Corel-Layer"/>
  <g id="_2415681167888">
   <path class="fil0" d="M212.69 1024.37c0,-68.19 11.88,-164.58 33.16,-230.73l11.99 -42.56c11.55,-32.82 31.64,-80 47.61,-111.76 11.46,-22.79 26.32,-44.67 38.7,-66.14 3.7,-6.42 4.98,-9.96 9.77,-16.44l44.77 -62.29c115.86,-145.55 296,-255.33 476.61,-299.94 113.65,-28.07 270.45,-29.29 383.73,-0.87 27.9,7 57.13,13.3 83.81,23.49 28.13,10.74 89.36,32.96 112.66,47.11 6.07,3.69 10.63,5.46 17.01,9.24 7.47,4.43 10.54,4.73 17.61,8.65 44.85,24.87 86.71,55.91 126.56,87.78 10.91,8.73 17.87,17.11 27.81,24.66 20.51,15.56 36.47,34.89 54.31,52.81 17.67,17.75 32.17,37.26 48.08,56.81 32.03,39.34 60.81,85.81 83.24,130.83 3.63,7.29 5.9,10.85 9.43,16.78 4.89,8.22 4.66,10.66 8.25,20.13 4.37,11.51 11.52,23.94 16.62,35.78 39.04,90.74 60.73,215.52 60.73,314.47 0,40.86 -4.62,105.29 -11.89,145.09 -5.55,30.41 -14.33,57.56 -20.43,86.47l-26.19 80.75c-18.43,42.95 -38.43,83.27 -62.55,123.07 -4.03,6.65 -4.48,10.08 -9.12,17.08 -4.21,6.36 -6.88,9.03 -11.07,15.15 -4.42,6.46 -6.47,10.88 -10.89,17.51l-58.91 74.39c-30.89,32.23 -58.48,63.21 -94.04,91.77l-60.17 46.98c-57.87,40.2 -108.84,65.59 -173.52,93.41 -25.03,10.76 -52.05,18.36 -78.16,26.93 -28.33,9.3 -112.92,26.27 -135.14,26.95 -14.36,0.44 -34.14,3.62 -48.23,4.37 -41.71,2.21 -84.81,2.47 -125.32,-1.87 -24.12,-2.58 -47.14,-2.55 -69.66,-7.04 -40.96,-8.18 -83.99,-15.94 -123.25,-30.05 -9.63,-3.46 -16.62,-6.64 -27.44,-9.78 -21.32,-6.18 -34.1,-13.89 -54.65,-21.96 -31.88,-12.51 -59.9,-29.85 -89.59,-46.07l-36.34 -22.72c-14.04,3.25 -25.71,8.92 -39.17,13.37 -13.04,4.31 -29.2,8.16 -42.24,12.5 -13.62,4.53 -25.77,9.65 -38.89,13.65 -6.3,1.92 -13.13,3.32 -20.97,5.31l-102.77 32.98c-26.3,10.35 -57.18,14.63 -82.68,26.79 6.28,-26.82 60.66,-183.57 67.7,-202.95l25.67 -74.74c3.91,-9.96 4.85,-16.67 8.15,-27.01 5.14,-16.11 -3.92,-19.66 -18.66,-41.34 -25.57,-37.61 -39.99,-68.18 -60.18,-107.99 -4.3,-8.48 -7.83,-15.26 -11.77,-23.17 -7.75,-15.54 -12.06,-32.4 -18.74,-48.93 -20.76,-51.41 -31.66,-108.2 -40.74,-162.17 -5.16,-30.68 -10.62,-90.68 -10.62,-124.55zm-173.22 -28.33c0,59.58 0.7,115.93 8.88,174.23 6.67,47.52 17.62,95.2 31.35,141 3.79,12.64 7.68,20.39 10.99,32.66 1.66,6.16 2.05,10.25 3.8,15.83 10.34,33.02 31.3,75.24 45.21,107.62 4.62,10.75 9.17,18.85 15.06,28.62 5.95,9.87 9.3,18.63 14.79,28.88 3.81,7.1 15.67,21.96 16.15,27.1 1.11,11.97 -17.35,48.23 -21.54,62.66 -8.06,27.71 -19.02,54.12 -26.61,82.51 -7.37,27.56 -38.87,105.1 -44.49,127.94 -1.95,7.92 -1.89,10.08 -4.46,17.36 -3.68,10.42 -7.11,19.96 -11.21,30.27l-32.74 98.21c-3.54,11.96 -7.66,22.18 -11.44,32.22l-21.91 65.39c-4.07,10.87 -8.66,21.11 -11.3,32.36 14.5,0 25.67,-4.82 36.96,-9.03l69.65 -22.3c13.03,-4.33 23.67,-8.54 35.62,-12.54 11.47,-3.84 24.41,-6.06 35.71,-10.27 12.2,-4.55 23.25,-7.83 36.08,-12.08l106.93 -33.2c13.33,-4.46 22.85,-8.16 35.57,-12.59l88.35 -27.69c7.18,-1.58 11.68,-2.49 19.17,-4.92 18.39,-5.97 33.15,-13.19 52.19,-17.87 77.05,-18.94 36.01,-23.46 80.17,-3.14 9.13,4.2 16.13,6.92 25.58,11.62l77.45 34.17c29.04,10.57 54.83,20.31 86.44,27.41l58.48 15.97c117.65,23.99 244.81,32.93 365.07,14.51 19.23,-2.95 33.36,-5.79 53.19,-8.15 16.81,-2.01 35.23,-7.23 52.12,-11.4l95.97 -28.84c9.56,-3.4 12.48,-4.99 22.86,-7.79 8.49,-2.29 14.68,-5.5 23.64,-9.19l85.72 -39.02c8.34,-3.81 12.24,-6.23 19.55,-11.08 7.7,-5.1 12.95,-7.17 21.39,-11.42 23.25,-11.7 45.46,-27.65 66.88,-42.49 3.86,-2.68 6.8,-3.97 10.89,-6.61l35.54 -25.7c6.69,-4.71 9.36,-9.4 16.17,-14.44l35.14 -28.28c7.89,-6.13 10.34,-9.02 17.11,-15.68l48.33 -45.68c16.47,-17.01 59.54,-64.89 73.03,-84.32l26.56 -36.8c15.69,-26.15 35.72,-48.79 48.67,-75.85 7.07,-14.78 16.3,-25.47 22.49,-40.84 5.68,-14.1 15.98,-27.69 21.32,-42.01 8.43,-22.61 19.82,-42.18 26.62,-65.07 2.6,-8.74 5.9,-15.14 9.01,-23.73l15.04 -48.25c5.91,-23.22 15.68,-48.75 20.39,-73.44l13.79 -80c15.71,-106.28 13.15,-222.6 -8.36,-327.58 -7.06,-34.46 -13.48,-65.27 -23.87,-98.32 -2.3,-7.3 -3.83,-17.23 -5.98,-24.56l-53.62 -131.94c-11.33,-19.91 -19.09,-40.72 -31.79,-59.93 -4.94,-7.48 -5.78,-12.59 -10.44,-20.13l-49.69 -74.83c-14.57,-15.99 -26.84,-34.7 -40.18,-51.59 -7.5,-9.49 -48.87,-58.07 -58.59,-65.99 -9.92,-8.07 -7.23,-5.4 -15.35,-15.25 -5.92,-7.18 -9.93,-8.29 -16.39,-14.22 -5.69,-5.23 -9.55,-10.2 -15.34,-15.26 -6.64,-5.81 -9.82,-7.48 -16.42,-14.19 -14.97,-15.23 -33.62,-28.22 -51.16,-40.68 -7.59,-5.39 -11.53,-9.41 -18.11,-14.69 -15.37,-12.35 -66.5,-45.18 -84.29,-53.52l-70.26 -39.13c-4.01,-2.02 -6.93,-3.67 -10.28,-5.03l-76.1 -31.15c-7.8,-3.3 -14.54,-5.31 -22.23,-8.41 -24.99,-10.06 -68.65,-21.94 -95.88,-28.93l-76.73 -15.27c-77.29,-14.37 -150.04,-12.15 -228.96,-12.15 -38.58,0 -76.49,6.04 -110.56,12.15l-77.17 14.83c-9.46,2.4 -14.62,3.95 -24.03,6.62 -28.94,8.21 -64.88,17.89 -92.27,30.33 -9.27,4.21 -14.11,4.76 -22.98,7.67 -8.08,2.65 -13.05,6 -21.31,9.33l-43.43 20.03c-20.16,10.08 -41.15,19.53 -59.92,31.97 -12.59,8.34 -25.97,13.54 -38.53,22.72 -8.67,6.34 -10.11,6.19 -19.24,11.39 -6.78,3.86 -10.22,8.1 -17.65,12.97l-35.71 25.52c-4.84,3.96 -3.02,2.99 -8.78,6.53 -9.7,5.97 -15.25,14.09 -25.24,20.68l-49.44 42.39c-21.2,19.71 -43.54,40.44 -61.65,62.95l-14.92 15.68c-12.74,13.61 -28.61,37.59 -40.69,51.09 -9.57,10.69 -17.19,23.99 -25.83,35.35 -4.56,5.99 -8.36,10.66 -12.4,18.19l-34.95 56.79c-9.12,13.72 -13.15,25.67 -21.55,39.6 -24.09,39.98 -39.53,85.54 -56.77,128.82l-27.51 94.69c-2.89,17.74 -7.63,32.75 -11.09,50 -3.56,17.78 -6.52,32.55 -9.35,51.73l-8.38 115.89z"/>
   <path class="fil0" d="M554.74 765.04c0,54.77 4.4,92.61 25.62,142.34 8.8,20.62 2.9,16.85 21.71,50.34 3.21,5.72 4.77,11.12 7.44,16.57l64.94 103.26c19.66,32.93 33.98,47.91 49.12,71.04 7.1,10.83 13.47,16.17 21.33,26.74 3.71,5 6.09,9.47 9.98,14.05 35.22,41.39 87.9,100.28 129.07,133.23 8.67,6.94 17,15.45 25.65,22.45 41.23,33.38 98.92,71.54 145.78,94.83 10.89,5.41 21.68,10.34 33.09,15.05 28.7,11.84 55.86,25.39 84.56,35.82l52.37 19.87c11.82,4.24 24.47,6.79 37.3,10.87 26.51,8.44 49.84,17.18 83.58,17.18 18.03,0 76.53,-10.33 94.28,-17.43 18.93,-7.57 15.52,-3.09 40.19,-16.72 36.57,-20.2 69.98,-41.65 93.6,-76.95 10.37,-15.5 10.14,-20.77 16.66,-40.1 8.2,-24.29 19.9,-69.62 13.51,-94.53 -3.06,-11.92 -19.08,-21.03 -29.74,-27.13 -10.76,-6.16 -15.99,-6.72 -37.31,-19.58l-92.92 -49.3c-7.14,-4.25 -12.46,-5.51 -19.4,-9.05 -6.79,-3.45 -10.5,-6.43 -18.18,-10.26 -53.04,-26.38 -70.36,-35.63 -99.25,6.74l-29.14 34.23c-16.93,16.57 -55.13,67.29 -70.43,67.29 -31.2,0 -34.69,-8.87 -72.67,-25.84l-57.62 -32.08c-7.24,-4.9 -10.07,-8.15 -18.13,-12.49l-51.61 -38.06c-34.05,-29.51 -61.87,-53.09 -91.32,-90.12l-74.46 -104.69 -20.32 -40.99c-5.39,-20.24 17.04,-37.6 32.58,-52.87 19.04,-18.71 59.73,-64.67 59.73,-91 0,-29.66 -17.22,-55.83 -29.01,-93.21l-31.45 -84.24c-10.42,-25.82 -21.1,-64.08 -35.46,-80.26 -13.16,-14.83 -16.73,-14.04 -42.28,-14.64 -43.41,-1.02 -76.97,-18.47 -124.38,28.82l-37.21 39.29 -29.81 46.64c-17.51,40.8 -30,75.18 -30,124.91z"/>
  </g>
 </g>
</svg>
