<?xml version="1.0" encoding="UTF-8"?>
<!DOCTYPE svg PUBLIC "-//W3C//DTD SVG 1.1//EN" "http://www.w3.org/Graphics/SVG/1.1/DTD/svg11.dtd">
<!-- Creator: CorelDRAW 2020 (64 Bit Versão de avaliação) -->
<svg xmlns="http://www.w3.org/2000/svg" xml:space="preserve" width="210.156mm" height="297.168mm" version="1.1" style="shape-rendering:geometricPrecision; text-rendering:geometricPrecision; image-rendering:optimizeQuality; fill-rule:evenodd; clip-rule:evenodd"
viewBox="0 0 5735.46 8110.15"
 xmlns:xlink="http://www.w3.org/1999/xlink"
 xmlns:xodm="http://www.corel.com/coreldraw/odm/2003">
 <defs>
  <style type="text/css">
   <![CDATA[
    .str0 {stroke:#E6E7E8;stroke-width:5.46;stroke-miterlimit:22.9256}
    .fil0 {fill:none;fill-rule:nonzero}
   ]]>
  </style>
 </defs>
 <g id="Layer_x0020_1">
  <metadata id="CorelCorpID_0Corel-Layer"/>
  <path class="fil0 str0" d="M667.93 117.35c-288.2,589.28 -215.98,1584.64 -665.27,2208.22m0 -590.95c211.73,-31.25 451.65,-48.79 723.13,-47.93 795.12,2.49 2329.99,180.03 2425.6,-944.01 22.7,-266.91 -157.9,-540.85 -441.97,-740.44m-1821.65 0c-378.79,295.38 -685.61,833.1 -796.46,1715.3 -24.78,197.19 -54.75,371.11 -88.64,524.25m0 109.45c1465.89,-176 4251.52,37.18 5731.21,-117.96m0 -1745.45c-382.84,-81.54 -809.3,-103.37 -1233.97,-32.98 -2157.97,357.65 -2077.21,4797.59 -4497.24,5681.14m0 -883.08c1619.19,-413.93 4732.92,-364.52 5558.89,-514.82 42.13,-7.67 100.94,-17.87 172.32,-30.45m0 -1947.37c-749.28,270.26 -1448.84,740.81 -1902.69,1241.6 -513.05,566.12 -2627.29,3851.77 -3828.53,3190.06m0 -588.3c799.21,-144.34 2552.2,-40.2 2863.3,-40.2 736.02,0 1782.32,34.4 2867.91,36.95m0 -14.3c-433.79,288.23 -790.9,555.33 -1012.19,740.08 -300.6,250.96 -641.35,560.02 -1014.33,781.65m-1532.39 0c-33.16,-196.36 107.55,-468.05 467.3,-613.87 602.27,-244.11 1895.42,-481.96 3091.62,-763.23m0 -1697.4c-1372.14,979.99 -1783.74,2847.91 -3154.78,2397.96 -854.96,-280.59 -698.71,-1401.14 -76.66,-1840.29 580.75,-409.98 2238.4,-902.91 3231.44,-1133.34m0 -1555.95c-52.22,1.27 -105.22,5.32 -158.82,12.5 -884.21,118.54 -2149.77,852.27 -2715.84,1565.47 -703.57,886.44 -1499.35,2617.28 -2856.55,2507.37m0 -1368.29c202.43,-275.08 509.95,-537.16 948.28,-725.42 1912.2,-821.27 3081.15,-526.62 4782.93,-759.78m0 -2034.93c-195.54,46.46 -367.2,97.7 -503.06,149.75 -705.44,270.24 -1615.4,703.98 -2109.8,1288.73 -817.82,967.28 -1101.74,1828.64 -2610.74,1863.43 -205.72,4.75 -373.19,-29.72 -507.61,-91.11m0 -1507.26c1751.98,-796.73 3811.94,-601.15 5731.21,-572.11m0 -1655.02c-197.51,34.1 -384.72,72.94 -557.06,114.54 -2145.93,518 -2555.31,1020.96 -4360.38,1774.72 -273.77,114.32 -547.18,196.52 -813.77,251.77m0 -1785.07c1257.67,-123.52 2629.77,-79.91 3342.54,108.6 1087.2,287.54 1659.29,393.84 2388.67,425.06m0 -2395.3c-143.67,-6.93 -293.44,-10.08 -450.51,-8.42 -468.42,4.95 -3568.38,802.38 -3967.93,995.11 -437.63,211.11 -872.78,545.35 -1312.77,876.19m0 2097.1c235.81,544.02 634.84,936.06 1390.87,981.61 1617.24,97.45 4181.23,-1582.94 3703.24,-3569.69 -69.95,-290.72 -317.3,-989.3 -661.62,-1439.04m-1377.77 0c-1841.17,1346.55 -994.43,2427.65 -2097.76,4592.65 -245.23,481.21 -565.34,892.69 -956.96,1165.67m0 -3346.17c1306.63,-409.19 2775.76,-636.63 3349.29,43.7 1064.39,1262.59 968.92,1771.81 2381.92,2504.16m0 -3002.58c-148.52,101.8 -274.33,195.7 -358.9,268.93 -1421.8,1231.05 -1592.23,2838.91 -3510.39,4211.89 -741.77,530.94 -1322.18,841.94 -1861.91,556.5m0 -2403.81c572.03,-146.72 1295.4,-34.47 1815.63,434.68 379.7,342.42 2220.42,2368.37 3272.65,3079.96m642.93 -3108.65c-776.82,-174.79 -1405.54,1010.84 -1794.21,1520.88 -495.06,649.66 -1424.24,1734.84 -2379.79,1526.91 -439.7,-95.68 -31.84,-1164.58 220.82,-1487.86 776.5,-993.55 2684.68,-1380.74 3953.18,-1633.49"/>
 </g>
</svg>
