<?xml version="1.0" encoding="UTF-8"?>
<!DOCTYPE svg PUBLIC "-//W3C//DTD SVG 1.0//EN" "http://www.w3.org/TR/2001/REC-SVG-20010904/DTD/svg10.dtd">
<!-- Creator: CorelDRAW 2020 (64 Bit Versão de avaliação) -->
<svg xmlns="http://www.w3.org/2000/svg" xml:space="preserve" width="205.705mm" height="205.04mm" version="1.0" style="shape-rendering:geometricPrecision; text-rendering:geometricPrecision; image-rendering:optimizeQuality; fill-rule:evenodd; clip-rule:evenodd"
viewBox="0 0 8931.48 8902.6"
 xmlns:xlink="http://www.w3.org/1999/xlink"
 xmlns:xodm="http://www.corel.com/coreldraw/odm/2003">
 <defs>
  <style type="text/css">
   <![CDATA[
    .str0 {stroke:#606062;stroke-width:8.68;stroke-miterlimit:22.9256}
    .fil1 {fill:#FEFEFE;fill-rule:nonzero}
    .fil2 {fill:#606062;fill-rule:nonzero}
    .fil0 {fill:#64CDF5;fill-rule:nonzero}
   ]]>
  </style>
 </defs>
 <g id="Camada_x0020_1">
  <metadata id="CorelCorpID_0Corel-Layer"/>
  <g id="_2825230643648">
   <polygon class="fil0 str0" points="4920.4,1805.44 4762.2,109.41 4169.27,109.41 4011.15,1805.44 "/>
   <g>
    <polygon class="fil1" points="4920.4,1805.44 4762.2,109.41 4169.27,109.41 4011.15,1805.44 "/>
    <path id="1" class="fil2" d="M4885.66 100.42l158.2 1696.03 -246.92 17.97 -158.2 -1696.03 123.46 -118.39 123.46 100.42zm-123.46 -100.42l114.1 0 9.37 100.42 -123.46 -100.42zm-592.93 0l592.93 0 0 218.81 -592.93 0 -123.46 -118.39 123.46 -100.43zm-123.46 100.43l9.36 -100.43 114.1 0 -123.46 100.43zm-158.13 1696.03l158.13 -1696.03 246.92 17.96 -158.13 1696.03 -123.46 100.43 -123.46 -118.39zm123.46 118.39l-134.5 0 11.04 -118.39 123.46 118.39zm909.26 0l-909.26 0 0 -218.81 909.26 0 123.46 100.42 -123.46 118.39zm123.46 -118.39l11.04 118.39 -134.5 0 123.46 -118.39z"/>
   </g>
   <g>
    <path class="fil2" d="M6759.08 1654.98l156.5 -169.64 -0.04 -0.03 99.09 73.51 96.02 75.81 92.94 78.02 89.84 80.16 86.75 82.21 83.65 84.18 80.54 86.08 77.42 87.9 74.31 89.63 71.19 91.29 68.06 92.87 64.93 94.37 61.8 95.79 58.66 97.13 55.52 98.4 52.38 99.59 49.24 100.71 46.08 101.74 42.94 102.69 39.78 103.58 36.62 104.39 33.46 105.13 30.29 105.78 27.12 106.35 23.95 106.87 20.77 107.29 17.58 107.65 14.4 107.93 11.21 108.13 8.01 108.26 4.82 108.32 1.6 108.3 -247.76 0 -1.52 -102.57 -4.55 -102.62 -7.59 -102.57 -10.62 -102.46 -13.65 -102.28 -16.66 -102.01 -19.68 -101.67 -22.7 -101.27 -25.7 -100.77 -28.7 -100.21 -31.69 -99.57 -34.68 -98.86 -37.66 -98.06 -40.64 -97.2 -43.6 -96.27 -46.57 -95.24 -49.52 -94.16 -52.48 -93 -55.42 -91.77 -58.36 -90.46 -61.29 -89.08 -64.22 -87.63 -67.14 -86.1 -70.06 -84.51 -72.97 -82.84 -75.87 -81.1 -78.77 -79.29 -81.68 -77.4 -84.56 -75.45 -87.46 -73.43 -90.35 -71.33 -93.24 -69.18 -0.04 -0.03zm-889.51 -527.14l244.86 -33.38 -71.83 -83.17 29.21 11.67 29.09 11.87 28.99 12.08 28.89 12.29 28.76 12.49 28.66 12.7 28.55 12.91 28.42 13.11 28.3 13.32 28.18 13.52 28.06 13.72 27.94 13.92 27.81 14.13 27.68 14.33 27.56 14.53 27.42 14.74 27.29 14.94 27.15 15.13 27.02 15.33 26.88 15.54 26.74 15.74 26.6 15.93 26.46 16.13 26.31 16.33 26.16 16.53 26.02 16.72 25.86 16.92 25.7 17.11 25.55 17.31 25.39 17.5 25.24 17.7 25.07 17.89 -156.5 169.64 -23.45 -16.73 -23.59 -16.55 -23.76 -16.37 -23.9 -16.2 -24.05 -16.01 -24.19 -15.83 -24.34 -15.65 -24.49 -15.47 -24.62 -15.28 -24.76 -15.1 -24.9 -14.91 -25.04 -14.73 -25.17 -14.55 -25.3 -14.36 -25.44 -14.18 -25.57 -13.99 -25.69 -13.8 -25.81 -13.61 -25.94 -13.43 -26.06 -13.24 -26.17 -13.05 -26.3 -12.86 -26.42 -12.67 -26.53 -12.48 -26.65 -12.29 -26.75 -12.1 -26.86 -11.9 -26.98 -11.72 -27.08 -11.52 -27.19 -11.33 -27.29 -11.14 -27.38 -10.94 -71.83 -83.17zm71.83 83.17l-61.54 -24.32 -10.29 -58.85 71.83 83.17zm86.72 -610.34l86.31 493.79 -244.86 33.38 -86.31 -493.79 174.43 -115.99 70.43 82.61zm-70.43 -82.61l60.29 24.63 10.13 57.99 -70.43 -82.61zm-1050.86 -187.24l-246.91 18.01 136.37 -117.82 33.48 3.24 33.69 3.56 33.89 3.87 34.11 4.19 34.31 4.53 34.49 4.86 34.7 5.2 34.9 5.55 35.08 5.9 35.26 6.26 35.45 6.63 35.63 6.99 35.81 7.37 35.99 7.75 36.16 8.14 36.33 8.53 36.51 8.94 36.65 9.33 36.82 9.74 36.98 10.16 37.14 10.58 37.29 11.01 37.44 11.43 37.59 11.88 37.74 12.32 37.88 12.77 38.01 13.22 38.15 13.68 38.28 14.15 38.41 14.61 38.56 15.1 38.66 15.58 -104.01 198.61 -36.29 -14.62 -36.15 -14.16 -36.02 -13.7 -35.88 -13.26 -35.73 -12.81 -35.58 -12.38 -35.43 -11.94 -35.29 -11.52 -35.13 -11.1 -34.98 -10.69 -34.83 -10.28 -34.67 -9.87 -34.51 -9.47 -34.35 -9.09 -34.19 -8.71 -34.01 -8.32 -33.85 -7.95 -33.68 -7.58 -33.51 -7.22 -33.34 -6.86 -33.16 -6.5 -32.99 -6.17 -32.81 -5.82 -32.63 -5.49 -32.43 -5.16 -32.26 -4.83 -32.08 -4.52 -31.88 -4.21 -31.68 -3.9 -31.5 -3.6 -31.31 -3.3 -31.1 -3.01 136.37 -117.82zm-246.91 18.01l-12.3 -131.58 148.67 13.76 -136.37 117.82zm137.03 1465.62l-137.03 -1465.62 246.91 -18.01 137.03 1465.62 -123.46 118.41 -123.46 -100.4zm246.91 -18.01l11.07 118.41 -134.53 0 123.46 -118.41zm-1032.72 -100.4l909.26 0 0 218.81 -909.26 0 -123.46 -118.38 123.46 -100.43zm0 218.81l-134.5 0 11.04 -118.38 123.46 118.38zm260.49 -1570.48l-137.03 1470.05 -246.92 -17.95 137.03 -1470.05 112.46 -100 134.47 117.95zm-134.47 -117.95l146.54 -11.55 -12.07 129.5 -134.47 -117.95zm-989.01 410.22l-243.88 -38.56 58.73 -74.81 2.62 -1.35 4.65 -2.35 7.24 -3.59 9.77 -4.73 12.22 -5.77 14.65 -6.76 17.04 -7.66 19.39 -8.48 21.71 -9.23 23.99 -9.9 26.25 -10.49 28.47 -11.02 30.66 -11.48 32.82 -11.84 34.93 -12.15 37.05 -12.38 39.09 -12.53 41.12 -12.61 43.13 -12.61 45.07 -12.54 47.02 -12.4 48.92 -12.17 50.78 -11.87 52.62 -11.5 54.41 -11.05 56.19 -10.52 57.92 -9.92 59.62 -9.25 61.3 -8.49 62.92 -7.67 64.52 -6.76 66.07 -5.78 22.01 217.95 -61.29 5.36 -59.81 6.27 -58.32 7.1 -56.79 7.88 -55.23 8.57 -53.65 9.19 -52.02 9.75 -50.37 10.23 -48.68 10.64 -46.95 10.98 -45.19 11.24 -43.39 11.44 -41.58 11.56 -39.7 11.61 -37.8 11.59 -35.88 11.5 -33.9 11.33 -31.92 11.11 -29.87 10.79 -27.81 10.4 -25.7 9.95 -23.56 9.43 -21.4 8.83 -19.18 8.15 -16.94 7.41 -14.66 6.58 -12.36 5.71 -10.03 4.74 -7.65 3.71 -5.29 2.62 -2.91 1.48 0.09 -0.04 58.73 -74.81zm-243.88 -38.56l9.99 -49.27 48.74 -25.54 -58.73 74.81zm-100.25 494.5l100.25 -494.5 243.88 38.56 -100.25 494.5 -70.25 80.14 -173.64 -118.71zm243.88 38.56l-11.41 56.28 -58.84 23.86 70.25 -80.14zm-2159.61 2159.87l-233.97 -71.99 -0.02 0.04 35.52 -86.81 37.91 -86.23 40.28 -85.59 42.63 -84.9 44.96 -84.15 47.27 -83.33 49.56 -82.47 51.82 -81.56 54.07 -80.57 56.28 -79.54 58.49 -78.45 60.68 -77.3 62.84 -76.1 64.99 -74.84 67.1 -73.52 69.21 -72.14 71.29 -70.7 73.35 -69.21 75.4 -67.66 77.41 -66.05 79.41 -64.39 81.4 -62.66 83.35 -60.87 85.29 -59.02 87.21 -57.12 89.1 -55.15 90.98 -53.13 92.83 -51.05 94.66 -48.89 96.46 -46.69 98.24 -44.42 100 -42.09 103.39 198.85 -93.62 39.42 -92 41.6 -90.37 43.74 -88.72 45.83 -87.05 47.86 -85.35 49.84 -83.64 51.77 -81.9 53.64 -80.14 55.46 -78.37 57.23 -76.56 58.94 -74.73 60.59 -72.9 62.2 -71.02 63.74 -69.13 65.24 -67.22 66.67 -65.28 68.05 -63.32 69.37 -61.34 70.64 -59.33 71.85 -57.31 73.01 -55.25 74.1 -53.18 75.15 -51.08 76.13 -48.97 77.06 -46.82 77.93 -44.66 78.74 -42.48 79.5 -40.27 80.19 -38.04 80.84 -35.79 81.41 -33.52 81.94 -0.02 0.04zm-369.43 1184.98l0 218.81 -123.88 -109.41 0.25 -43.38 0.76 -43.38 1.25 -43.38 1.76 -43.36 2.26 -43.34 2.77 -43.32 3.27 -43.31 3.77 -43.27 4.28 -43.24 4.78 -43.21 5.29 -43.17 5.79 -43.12 6.3 -43.08 6.82 -43.02 7.32 -42.97 7.83 -42.91 8.34 -42.84 8.84 -42.77 9.36 -42.7 9.87 -42.62 10.38 -42.55 10.89 -42.46 11.41 -42.37 11.91 -42.27 12.43 -42.18 12.95 -42.08 13.46 -41.97 13.98 -41.86 14.49 -41.75 15.01 -41.63 15.52 -41.5 16.04 -41.38 233.97 71.99 -15.17 39.14 -14.68 39.26 -14.2 39.38 -13.71 39.49 -13.22 39.61 -12.73 39.72 -12.25 39.82 -11.77 39.92 -11.28 40.02 -10.8 40.11 -10.31 40.2 -9.83 40.29 -9.34 40.36 -8.86 40.45 -8.38 40.51 -7.89 40.58 -7.42 40.66 -6.93 40.71 -6.45 40.77 -5.97 40.82 -5.5 40.87 -5.01 40.92 -4.53 40.95 -4.05 40.99 -3.58 41.03 -3.1 41.06 -2.62 41.08 -2.14 41.11 -1.67 41.12 -1.19 41.13 -0.71 41.15 -0.24 41.15 -123.88 -109.41zm0 218.81l-123.88 0 0 -109.41 123.88 109.41zm7893.75 0l-7893.75 0 0 -218.81 7893.75 0 123.88 109.41 -123.88 109.41zm123.88 -109.41l0 109.41 -123.88 0 123.88 -109.41z"/>
   </g>
   <g>
    <polygon class="fil2" points="6085.21,2355.54 5783.27,634.11 6028.11,600.61 6330.05,2322.04 "/>
   </g>
   <g>
    <polygon class="fil2" points="3148.17,636.59 2800.11,2358.02 2556.21,2319.55 2904.27,598.12 "/>
   </g>
   <g>
    <path class="fil2" d="M1071.19 3964.69l0 218.81 -123.67 -103.02 -1.9 -50.07 0.75 -50.36 3.17 -50.5 5.4 -50.52 7.42 -50.46 9.27 -50.3 10.93 -50.01 12.42 -49.63 13.74 -49.12 14.91 -48.52 15.91 -47.79 16.75 -46.93 17.44 -45.96 17.97 -44.86 18.35 -43.63 18.58 -42.28 18.64 -40.78 18.56 -39.17 18.34 -37.43 17.95 -35.53 17.41 -33.53 16.72 -31.37 15.88 -29.08 14.89 -26.65 13.75 -24.1 12.45 -21.41 11.01 -18.57 9.4 -15.58 7.65 -12.48 5.74 -9.23 3.65 -5.78 1.61 -2.52 215.3 108.29 -0.68 1.06 -3.03 4.79 -5.01 8.06 -6.88 11.23 -8.61 14.27 -10.16 17.15 -11.58 19.89 -12.83 22.51 -13.95 24.98 -14.91 27.29 -15.71 29.46 -16.35 31.49 -16.86 33.38 -17.19 35.1 -17.39 36.69 -17.44 38.13 -17.32 39.41 -17.05 40.55 -16.64 41.53 -16.08 42.36 -15.36 43.03 -14.5 43.55 -13.49 43.9 -12.34 44.1 -11.04 44.12 -9.62 43.98 -8.05 43.65 -6.35 43.18 -4.55 42.51 -2.63 41.66 -0.61 40.63 1.49 39.48 -123.67 -103.02zm0 218.81l-116.85 0 -6.82 -103.02 123.67 103.02zm2468.45 0l-2468.45 0 0 -218.81 2468.45 0 0 218.81z"/>
   </g>
   <g>
    <path class="fil2" d="M479.54 4475.98l7977.48 0 0 218.81 -7977.48 0 -4.66 -218.74 4.66 -0.07zm-4.66 0.07l2.22 -0.07 2.44 0 -4.66 0.07zm-351 500.8l0 218.81 -123.88 -108.66 0.76 -48.97 2.99 -46.58 5.14 -44.22 7.19 -41.93 9.16 -39.68 11.03 -37.5 12.81 -35.36 14.48 -33.25 16.03 -31.15 17.45 -29.07 18.72 -27.01 19.82 -24.94 20.74 -22.9 21.47 -20.9 21.99 -18.92 22.3 -17.01 22.42 -15.16 22.3 -13.38 22.01 -11.72 21.54 -10.15 20.87 -8.69 20.03 -7.36 19.03 -6.13 17.92 -5.03 16.65 -4.04 15.21 -3.16 13.66 -2.4 11.98 -1.75 10.12 -1.19 8.11 -0.76 5.86 -0.41 5.1 -0.24 9.32 218.67 3.04 -0.15 -0.16 -0 -1.58 0.14 -2.99 0.34 -4.28 0.61 -5.5 0.96 -6.57 1.36 -7.49 1.81 -8.31 2.32 -9.03 2.9 -9.6 3.51 -10.06 4.19 -10.43 4.91 -10.73 5.7 -10.95 6.56 -11.07 7.47 -11.16 8.5 -11.19 9.62 -11.16 10.84 -11.07 12.21 -10.92 13.72 -10.66 15.37 -10.33 17.19 -9.87 19.17 -9.28 21.3 -8.54 23.59 -7.65 26.02 -6.6 28.57 -5.36 31.23 -3.95 34.02 -2.38 36.91 -0.61 39.93 -123.88 -108.66zm0 218.81l-123.04 0 -0.84 -108.66 123.88 108.66zm8683.72 0l-8683.72 0 0 -218.81 8683.72 0 123.88 110.17 -123.88 108.64zm123.88 -108.64l-0.86 108.64 -123.02 0 123.88 -108.64zm-474.46 -392.23l0 -218.81 4.72 0.08 5.14 0.25 5.86 0.42 8.09 0.76 10.07 1.21 11.92 1.76 13.58 2.42 15.11 3.18 16.52 4.06 17.79 5.06 18.88 6.17 19.87 7.39 20.68 8.74 21.34 10.2 21.8 11.77 22.07 13.43 22.18 15.21 22.04 17.05 21.72 18.95 21.19 20.92 20.46 22.93 19.53 24.94 18.45 26.99 17.18 29.04 15.78 31.11 14.25 33.19 12.6 35.3 10.85 37.44 9.01 39.62 7.07 41.85 5.05 44.14 2.94 46.52 0.73 48.91 -247.76 -1.53 -0.59 -39.99 -2.34 -36.97 -3.9 -34.1 -5.29 -31.31 -6.51 -28.63 -7.56 -26.08 -8.44 -23.65 -9.17 -21.35 -9.75 -19.21 -10.19 -17.22 -10.52 -15.38 -10.76 -13.72 -10.9 -12.19 -10.97 -10.82 -10.99 -9.58 -10.95 -8.45 -10.84 -7.42 -10.71 -6.5 -10.48 -5.65 -10.18 -4.85 -9.82 -4.14 -9.34 -3.47 -8.78 -2.85 -8.08 -2.29 -7.29 -1.78 -6.36 -1.33 -5.31 -0.93 -4.12 -0.6 -2.86 -0.33 -1.46 -0.13 -0.07 0.01 3.11 0.15 4.72 0.08zm0 -218.81l2.41 0 2.32 0.08 -4.72 -0.08z"/>
   </g>
   <path class="fil0 str0" d="M8070.12 5086.26l-1809.22 0c-28.25,838.86 -806.42,1510.78 -1762.58,1510.78 -957.03,0 -1734.7,-671.92 -1763.09,-1510.78l-1809.58 0c0.43,66.84 3.86,132.58 8.08,198.66l-708.37 163.64 320.54 1082.73 693.57 -160.24c150.11,294.72 350.15,566.62 590.8,805.26l-430.95 493.04 1002.72 683.85 424.6 -485.9c320.11,150.14 669.03,257.7 1037.77,316l0 609.89 1267.41 0 0 -609.89c350.58,-55.33 683.41,-156.14 990.85,-294.72l416.58 491.16 1013.67 -670.79 -421.66 -497.9c178.86,-172.56 335.77,-362.68 468.15,-566.95l669.03 217.4 437.26 -1049.93 -682.55 -222.22c30.03,-164.35 46.55,-332.04 46.98,-503.09z"/>
   <g>
    <path class="fil1" d="M8070.12 5086.26l-1809.22 0c-28.25,838.86 -806.42,1510.78 -1762.58,1510.78 -957.03,0 -1734.7,-671.92 -1763.09,-1510.78l-1809.58 0c0.43,66.84 3.86,132.58 8.08,198.66l-708.37 163.64 320.54 1082.73 693.57 -160.24c150.11,294.72 350.15,566.62 590.8,805.26l-430.95 493.04 1002.72 683.85 424.6 -485.9c320.11,150.14 669.03,257.7 1037.77,316l0 609.89 1267.41 0 0 -609.89c350.58,-55.33 683.41,-156.14 990.85,-294.72l416.58 491.16 1013.67 -670.79 -421.66 -497.9c178.86,-172.56 335.77,-362.68 468.15,-566.95l669.03 217.4 437.26 -1049.93 -682.55 -222.22c30.03,-164.35 46.55,-332.04 46.98,-503.09z"/>
    <path id="1" class="fil2" d="M6260.9 4976.86l1809.22 0 0 218.81 -1809.22 0 -123.83 -112.66 123.83 -106.15zm0 218.81c-68.42,0 -123.88,-48.99 -123.88,-109.41 0,-60.42 55.46,-109.41 123.88,-109.41l0 218.81zm-1762.58 1510.78l0 -218.81 0 0 82.97 -1.82 81.82 -5.39 80.62 -8.88 79.33 -12.28 77.95 -15.59 76.49 -18.82 74.93 -21.96 73.28 -25.02 71.55 -27.99 69.7 -30.88 67.78 -33.69 65.76 -36.41 63.61 -39.04 61.39 -41.6 59.06 -44.05 56.64 -46.43 54.11 -48.71 51.48 -50.91 48.76 -53.03 45.93 -55.04 43.01 -56.97 39.98 -58.83 36.87 -60.59 33.65 -62.26 30.35 -63.84 26.95 -65.36 23.44 -66.77 19.85 -68.12 16.16 -69.38 12.37 -70.57 8.48 -71.68 4.49 -72.74 247.65 6.5 -5.16 83.54 -9.76 82.46 -14.24 81.24 -18.61 79.92 -22.87 78.49 -27.01 76.95 -31.04 75.3 -34.96 73.56 -38.77 71.72 -42.46 69.76 -46.03 67.72 -49.49 65.58 -52.85 63.34 -56.09 60.99 -59.21 58.56 -62.24 56.03 -65.14 53.4 -67.95 50.67 -70.63 47.85 -73.22 44.93 -75.68 41.9 -78.04 38.79 -80.3 35.57 -82.43 32.25 -84.45 28.83 -86.36 25.31 -88.14 21.68 -89.82 17.96 -91.36 14.14 -92.79 10.23 -94.09 6.2 -95.23 2.08 0 0zm0 0c-68.42,0 -123.88,-48.99 -123.88,-109.41 0,-60.42 55.46,-109.41 123.88,-109.41l0 218.81zm-1763.09 -1510.78l0 -218.81 123.83 106.14 4.51 72.74 8.48 71.68 12.37 70.57 16.16 69.39 19.84 68.12 23.44 66.77 26.94 65.35 30.35 63.85 33.65 62.26 36.86 60.58 39.98 58.82 43.01 56.97 45.92 55.05 48.76 53.02 51.48 50.91 54.1 48.71 56.64 46.42 59.07 44.05 61.4 41.59 63.63 39.04 65.76 36.41 67.8 33.69 69.73 30.88 71.57 27.99 73.32 25.02 74.97 21.96 76.53 18.82 78 15.59 79.39 12.28 80.68 8.88 81.89 5.39 83.05 1.82 0 218.81 -95.3 -2.08 -94.15 -6.2 -92.85 -10.22 -91.41 -14.14 -89.86 -17.96 -88.19 -21.68 -86.4 -25.3 -84.48 -28.83 -82.46 -32.25 -80.32 -35.57 -78.06 -38.79 -75.7 -41.9 -73.23 -44.93 -70.64 -47.85 -67.95 -50.67 -65.15 -53.41 -62.24 -56.03 -59.21 -58.56 -56.08 -61 -52.84 -63.33 -49.48 -65.57 -46.03 -67.72 -42.45 -69.76 -38.76 -71.72 -34.96 -73.55 -31.04 -75.31 -27.01 -76.94 -22.86 -78.49 -18.61 -79.91 -14.24 -81.24 -9.76 -82.45 -5.18 -83.53 123.83 106.14zm-123.83 -106.14c-2.04,-60.4 51.74,-110.83 120.13,-112.63 68.38,-1.8 125.49,45.69 127.53,106.09l-247.65 6.54zm-1685.75 -112.68l1809.58 0 0 218.81 -1809.58 0 -123.88 -108.78 123.88 -110.04zm0 218.81c-68.42,0 -123.88,-48.99 -123.88,-109.41 0,-60.42 55.46,-109.41 123.88,-109.41l0 218.81zm39.43 195.1l-62.7 -211.69 -92.33 112.01 -0.4 -6.27 -0.4 -6.3 -0.38 -6.25 -0.39 -6.29 -0.37 -6.29 -0.37 -6.29 -0.36 -6.29 -0.36 -6.32 -0.34 -6.32 -0.34 -6.3 -0.33 -6.32 -0.33 -6.36 -0.31 -6.36 -0.3 -6.33 -0.29 -6.33 -0.29 -6.4 -0.27 -6.4 -0.26 -6.33 -0.25 -6.37 -0.24 -6.45 -0.22 -6.41 -0.21 -6.42 -0.2 -6.42 -0.18 -6.42 -0.17 -6.5 -0.15 -6.43 -0.14 -6.47 -0.12 -6.51 -0.1 -6.48 -0.09 -6.49 -0.07 -6.53 -0.05 -6.53 247.76 -1.26 0.04 5.99 0.07 5.99 0.08 6.01 0.1 6.01 0.11 5.97 0.13 6 0.14 6.03 0.15 5.95 0.17 6.02 0.18 6.01 0.2 6.01 0.2 6 0.22 5.97 0.24 6.03 0.24 6.07 0.25 6 0.27 5.99 0.28 6.06 0.29 6.05 0.3 6.02 0.31 6.02 0.32 6.05 0.33 6.09 0.33 6.05 0.34 6.05 0.35 6.08 0.36 6.09 0.36 6.09 0.37 6.09 0.38 6.12 0.38 6.1 0.39 6.12 -92.33 112.01zm92.33 -112.01c3.85,60.33 -48.4,111.99 -116.71,115.39 -68.31,3.4 -126.81,-42.75 -130.66,-103.07l247.37 -12.32zm-863.4 63.95l708.37 -163.64 62.7 211.69 -708.37 163.64 -151.2 -78.17 88.5 -133.52zm62.7 211.69c-66.19,15.29 -133.89,-19.71 -151.2,-78.16 -17.31,-58.45 22.31,-118.24 88.5,-133.53l62.7 211.69zm169.34 1004.56l-320.54 -1082.73 239.7 -55.35 320.54 1082.73 -88.5 133.52 -151.2 -78.17zm239.7 -55.35c17.3,58.46 -22.33,118.24 -88.51,133.53 -66.19,15.28 -133.88,-19.72 -151.18,-78.18l239.7 -55.35zm605.07 -26.72l-693.57 160.24 -62.71 -211.69 693.57 -160.24 144.33 60.96 -81.62 150.73zm-62.71 -211.69c66.19,-15.29 133.88,19.7 151.2,78.16 17.32,58.45 -22.3,118.25 -88.49,133.53l-62.71 -211.69zm720.21 977.96l-196.12 -133.71 5.55 139.62 -23.23 -23.26 -22.97 -23.45 -22.72 -23.64 -22.48 -23.85 -22.22 -24.04 -21.97 -24.23 -21.71 -24.42 -21.45 -24.61 -21.18 -24.79 -20.92 -24.97 -20.66 -25.15 -20.4 -25.33 -20.12 -25.51 -19.86 -25.68 -19.59 -25.87 -19.31 -26.04 -19.03 -26.19 -18.76 -26.37 -18.48 -26.54 -18.2 -26.7 -17.93 -26.86 -17.64 -27.03 -17.35 -27.18 -17.07 -27.33 -16.78 -27.5 -16.48 -27.64 -16.2 -27.8 -15.9 -27.94 -15.61 -28.09 -15.31 -28.23 -15.01 -28.37 -14.71 -28.52 225.95 -89.77 13.72 26.61 14.01 26.48 14.28 26.35 14.57 26.21 14.84 26.08 15.11 25.93 15.4 25.8 15.65 25.66 15.93 25.51 16.2 25.37 16.46 25.21 16.72 25.07 16.99 24.92 17.25 24.77 17.51 24.61 17.77 24.46 18.02 24.29 18.27 24.12 18.54 23.97 18.78 23.81 19.03 23.63 19.28 23.48 19.53 23.3 19.77 23.14 20.01 22.95 20.25 22.78 20.49 22.6 20.72 22.42 20.96 22.23 21.2 22.06 21.43 21.87 21.66 21.68 5.55 139.62zm-5.55 -139.62c45.5,45.12 40.97,114.28 -10.12,154.47 -51.09,40.18 -129.4,36.19 -174.9,-8.94l185.02 -145.53zm-621.52 498.95l430.95 -493.04 196.12 133.71 -430.95 493.04 -173.78 19.74 -22.35 -153.45zm196.12 133.71c-41.81,47.83 -119.61,56.67 -173.76,19.75 -54.16,-36.92 -64.17,-105.63 -22.36,-153.46l196.12 133.71zm828.94 703.59l-1002.72 -683.85 151.43 -173.19 1002.72 683.85 22.36 153.44 -173.78 19.75zm151.43 -173.19c54.15,36.93 64.15,105.64 22.33,153.46 -41.81,47.82 -119.61,56.65 -173.76,19.73l151.43 -173.19zm446.95 -332.46l-424.6 485.9 -196.14 -133.69 424.6 -485.9 156.17 -29.79 39.97 163.47zm-196.14 -133.69c41.8,-47.83 119.6,-56.68 173.76,-19.77 54.16,36.91 64.18,105.63 22.38,153.46l-196.14 -133.69zm1259.72 382.84l-247.76 0 102.05 107.7 -35.69 -5.8 -35.58 -6.1 -35.46 -6.4 -35.33 -6.7 -35.21 -6.98 -35.08 -7.28 -34.95 -7.57 -34.82 -7.86 -34.69 -8.15 -34.56 -8.43 -34.42 -8.73 -34.27 -9.01 -34.15 -9.3 -34 -9.57 -33.85 -9.85 -33.71 -10.13 -33.57 -10.42 -33.42 -10.69 -33.26 -10.97 -33.12 -11.24 -32.96 -11.52 -32.8 -11.79 -32.65 -12.06 -32.49 -12.33 -32.33 -12.6 -32.16 -12.87 -32 -13.13 -31.84 -13.39 -31.68 -13.66 -31.5 -13.92 -31.32 -14.18 -31.16 -14.45 116.21 -193.26 29.03 13.46 29.2 13.22 29.35 12.98 29.5 12.73 29.67 12.48 29.83 12.24 29.98 12 30.13 11.74 30.28 11.49 30.43 11.24 30.58 10.99 30.72 10.74 30.86 10.48 31.02 10.23 31.14 9.97 31.29 9.7 31.44 9.45 31.57 9.19 31.7 8.93 31.83 8.66 31.97 8.4 32.1 8.14 32.23 7.87 32.36 7.6 32.48 7.33 32.61 7.06 32.73 6.79 32.86 6.52 32.98 6.24 33.08 5.97 33.21 5.69 33.32 5.42 102.05 107.7zm-102.05 -107.7c67.34,10.65 112.17,67.5 100.12,126.97 -12.05,59.48 -76.43,99.06 -143.77,88.42l43.65 -215.39zm-145.71 717.59l0 -609.89 247.76 0 0 609.89 -123.88 109.41 -123.88 -109.41zm247.76 0c0,60.42 -55.46,109.41 -123.88,109.41 -68.42,0 -123.88,-48.99 -123.88,-109.41l247.76 0zm1143.53 109.41l-1267.41 0 0 -218.81 1267.41 0 123.88 109.41 -123.88 109.41zm0 -218.81c68.42,0 123.88,48.99 123.88,109.41 0,60.42 -55.46,109.41 -123.88,109.41l0 -218.81zm123.88 -500.49l0 609.89 -247.76 0 0 -609.89 102.09 -107.71 145.67 107.71zm-247.76 0c0,-60.42 55.46,-109.41 123.88,-109.41 68.42,0 123.88,48.99 123.88,109.41l-247.76 0zm1213.88 -360.31l-198.29 131.19 155.46 31.86 -29.89 13.33 -30.05 13.09 -30.2 12.87 -30.34 12.63 -30.49 12.4 -30.65 12.16 -30.79 11.92 -30.94 11.68 -31.08 11.44 -31.23 11.2 -31.35 10.95 -31.5 10.72 -31.64 10.47 -31.77 10.22 -31.91 9.97 -32.04 9.72 -32.17 9.47 -32.3 9.21 -32.43 8.96 -32.56 8.7 -32.67 8.44 -32.81 8.19 -32.94 7.92 -33.05 7.66 -33.16 7.39 -33.29 7.13 -33.4 6.86 -33.52 6.6 -33.64 6.33 -33.74 6.05 -33.86 5.79 -33.97 5.51 -43.58 -215.41 31.67 -5.13 31.56 -5.39 31.47 -5.65 31.35 -5.89 31.24 -6.15 31.14 -6.4 31.03 -6.65 30.94 -6.9 30.81 -7.14 30.69 -7.39 30.59 -7.63 30.48 -7.88 30.35 -8.11 30.25 -8.36 30.12 -8.59 29.99 -8.83 29.89 -9.07 29.75 -9.3 29.64 -9.54 29.51 -9.76 29.38 -10 29.26 -10.23 29.13 -10.45 28.99 -10.68 28.87 -10.9 28.73 -11.12 28.6 -11.35 28.46 -11.57 28.33 -11.78 28.18 -12.01 28.04 -12.22 27.9 -12.44 155.46 31.86zm-155.46 -31.86c60.94,-27.47 135.55,-6.1 166.65,47.72 31.1,53.82 6.91,119.72 -54.03,147.19l-112.63 -194.91zm373.75 654.2l-416.58 -491.16 198.29 -131.19 416.58 491.16 -24.87 153.15 -173.43 -21.97zm198.29 -131.19c41.02,48.36 29.88,116.94 -24.87,153.16 -54.76,36.22 -132.4,26.39 -173.42,-21.97l198.29 -131.19zm988.81 -517.64l-1013.67 670.79 -148.56 -175.12 1013.67 -670.79 173.48 22.03 -24.92 153.09zm-148.56 -175.12c54.75,-36.23 132.4,-26.4 173.42,21.95 41.02,48.36 29.89,116.93 -24.86,153.16l-148.56 -175.12zm-248.18 -475.88l421.66 497.9 -198.4 131.06 -421.66 -497.9 7.82 -139.41 190.57 8.35zm-198.4 131.06c-40.97,-48.39 -29.79,-116.96 25,-153.15 54.79,-36.19 132.42,-26.3 173.4,22.08l-198.4 131.06zm610.13 -735.16l-85.55 205.36 150.29 -48.33 -12.91 19.76 -13.05 19.67 -13.2 19.59 -13.36 19.5 -13.5 19.41 -13.64 19.32 -13.79 19.23 -13.94 19.14 -14.08 19.05 -14.23 18.97 -14.38 18.88 -14.51 18.77 -14.65 18.68 -14.8 18.6 -14.94 18.49 -15.08 18.4 -15.23 18.32 -15.37 18.21 -15.5 18.11 -15.65 18.01 -15.78 17.91 -15.93 17.82 -16.07 17.72 -16.2 17.63 -16.34 17.52 -16.47 17.41 -16.61 17.32 -16.76 17.22 -16.88 17.1 -17.02 17.01 -17.16 16.9 -17.28 16.79 -182.75 -147.75 16.13 -15.67 16 -15.76 15.87 -15.86 15.76 -15.97 15.62 -16.05 15.49 -16.15 15.37 -16.26 15.24 -16.34 15.11 -16.43 14.99 -16.54 14.86 -16.63 14.74 -16.72 14.6 -16.81 14.47 -16.91 14.34 -17 14.21 -17.08 14.08 -17.19 13.95 -17.27 13.81 -17.35 13.69 -17.45 13.55 -17.53 13.41 -17.61 13.28 -17.7 13.15 -17.8 13.02 -17.88 12.88 -17.97 12.75 -18.04 12.6 -18.13 12.47 -18.21 12.33 -18.29 12.2 -18.38 12.06 -18.46 150.29 -48.33zm-150.29 48.33c33.98,-52.44 109.68,-70.62 169.05,-40.61 59.38,30.01 79.96,96.86 45.98,149.3l-215.03 -108.69zm733.76 374.43l-669.03 -217.4 85.55 -205.36 669.03 217.4 73.49 140.45 -159.04 64.91zm85.55 -205.36c64.2,20.86 97.11,83.76 73.48,140.46 -23.62,56.71 -94.83,85.77 -159.03,64.9l85.55 -205.36zm510.75 -909.48l-437.26 1049.93 -232.53 -75.54 437.26 -1049.93 159.11 -64.89 73.42 140.43zm-232.53 -75.54c23.62,-56.71 94.82,-85.77 159.03,-64.91 64.21,20.86 97.12,83.75 73.5,140.45l-232.53 -75.54zm-523.44 -287.1l682.55 222.22 -85.69 205.31 -682.55 -222.22 -79.45 -120.08 165.14 -85.23zm-85.69 205.31c-64.19,-20.9 -97.05,-83.81 -73.39,-140.5 23.66,-56.69 94.89,-85.71 159.08,-64.81l-85.69 205.31zm89.83 -496.33l0 -218.81 123.88 109.65 -0.09 16.59 -0.19 16.57 -0.28 16.55 -0.38 16.53 -0.48 16.5 -0.57 16.48 -0.67 16.47 -0.76 16.44 -0.86 16.42 -0.94 16.41 -1.04 16.38 -1.13 16.36 -1.23 16.34 -1.31 16.31 -1.41 16.3 -1.49 16.26 -1.58 16.25 -1.68 16.23 -1.76 16.2 -1.85 16.2 -1.94 16.16 -2.02 16.13 -2.11 16.12 -2.2 16.09 -2.28 16.07 -2.37 16.05 -2.45 16.02 -2.54 16.02 -2.62 16 -2.7 15.96 -2.78 15.93 -2.87 15.92 -244.6 -34.86 2.68 -14.92 2.61 -14.94 2.54 -14.95 2.45 -14.95 2.37 -14.98 2.29 -15.01 2.22 -15.01 2.13 -15.04 2.06 -15.06 1.97 -15.06 1.89 -15.1 1.81 -15.11 1.73 -15.11 1.65 -15.14 1.56 -15.15 1.48 -15.17 1.4 -15.21 1.31 -15.2 1.22 -15.23 1.14 -15.24 1.05 -15.26 0.97 -15.28 0.88 -15.29 0.79 -15.32 0.71 -15.33 0.62 -15.35 0.53 -15.37 0.44 -15.39 0.36 -15.41 0.26 -15.41 0.18 -15.44 0.08 -15.46 123.88 109.65zm-123.88 -109.65c0.15,-60.42 55.74,-109.29 124.15,-109.16 68.42,0.13 123.75,49.23 123.61,109.65l-247.76 -0.49z"/>
   </g>
   <g>
    <polygon class="fil2" points="1971.76,5654.12 2210.69,5596.24 2238.79,5679.63 2270.72,5761.42 2306.4,5841.57 2345.72,5920 2388.57,5996.65 2434.86,6071.46 2484.48,6144.34 2537.33,6215.25 2593.31,6284.09 2652.31,6350.8 2714.22,6415.31 2778.95,6477.54 2846.38,6537.42 2916.42,6594.89 2988.95,6649.87 3063.85,6702.28 3141.04,6752.05 3220.39,6799.11 3301.8,6843.4 3385.16,6884.84 3470.35,6923.35 3557.28,6958.87 3645.84,6991.34 3735.9,7020.67 3827.38,7046.81 3920.16,7069.68 4014.13,7089.22 4109.19,7105.35 4205.24,7118.02 4302.18,7127.16 4399.9,7132.69 4498.32,7134.55 4498.32,7353.36 4389.34,7351.31 4281.12,7345.18 4173.81,7335.07 4067.51,7321.05 3962.36,7303.2 3858.46,7281.6 3755.93,7256.33 3654.9,7227.46 3555.46,7195.08 3457.75,7159.26 3361.87,7120.08 3267.93,7077.61 3176.05,7031.94 3086.33,6983.13 2998.89,6931.27 2913.85,6876.43 2831.31,6818.68 2751.38,6758.1 2674.19,6694.76 2599.85,6628.73 2528.46,6560.09 2460.14,6488.92 2395.01,6415.28 2333.19,6339.25 2274.79,6260.91 2219.94,6180.32 2168.73,6097.58 2121.31,6012.74 2077.78,5925.89 2038.27,5837.12 2002.89,5746.5 "/>
   </g>
  </g>
 </g>
</svg>
