<?xml version="1.0" encoding="UTF-8"?>
<!DOCTYPE svg PUBLIC "-//W3C//DTD SVG 1.0//EN" "http://www.w3.org/TR/2001/REC-SVG-20010904/DTD/svg10.dtd">
<!-- Creator: CorelDRAW 2020 (64 Bit Versão de avaliação) -->
<svg xmlns="http://www.w3.org/2000/svg" xml:space="preserve" width="200mm" height="200mm" version="1.0" style="shape-rendering:geometricPrecision; text-rendering:geometricPrecision; image-rendering:optimizeQuality; fill-rule:evenodd; clip-rule:evenodd"
viewBox="0 0 1558.78 1558.78"
 xmlns:xlink="http://www.w3.org/1999/xlink"
 xmlns:xodm="http://www.corel.com/coreldraw/odm/2003">
 <defs>
  <style type="text/css">
   <![CDATA[
    .fil0 {fill:#606062}
   ]]>
  </style>
 </defs>
 <g id="Camada_x0020_1">
  <metadata id="CorelCorpID_0Corel-Layer"/>
  <g id="_2417485994416">
   <path class="fil0" d="M964.73 1084.47c-24.65,-61.77 -22.16,-73.33 -0.09,-131.54 -52.77,-13.9 -103.05,-52.1 -138.36,-77.74 -24.16,39.28 -31.85,46.42 -79.78,61.71 -91.21,29.09 -287.11,31.85 -321.94,-60.94 -66.28,31.11 -94.59,68.93 -184.7,92.17 -76.18,19.65 -150.63,22.59 -188.62,78.76 -38.62,57.09 -47.02,146.16 -50.55,230.04 -4.98,118.33 15.96,143.86 92.03,184.6 235.87,126.33 649.48,102.03 916.17,52.95 -22.58,-49.82 -103.51,-79.35 -45.89,-169.83 -1.46,-1.35 -3.73,-2.77 -4.78,-3.44 -32.45,-20.57 -41.19,-13.91 -56.88,-39.11 -5.82,-9.34 -60.33,-201.92 63.4,-217.63z"/>
   <path class="fil0" d="M558.27 7.58c-198.7,43.68 -222.28,171.12 -234.01,324.86 -5.21,68.27 -42.1,69.71 -20.09,168.31 13.95,62.49 40.09,65.5 63.83,124.29 21.92,54.27 38.43,82.69 70.48,124.73 43.13,56.56 133.13,148.69 247.2,103.31 122.73,-48.83 160.62,-159.69 205.41,-254.15 15.23,-32.12 90.59,-93.36 40.92,-225.15 -29.13,-77.28 5.77,-208.55 -96.66,-290.86 -73.45,-59.02 -161.65,-100.72 -277.08,-75.34z"/>
   <path class="fil0" d="M1208.21 1080.77c70.94,-26.62 135.21,19.99 155.05,82.56 26.08,82.23 -22.37,156.9 -76.71,176.78 -155.86,57.02 -238.44,-199.27 -78.35,-259.34zm262.9 2.07c14.17,-30.18 43.4,-53.67 21.3,-87.15 -88.73,-134.4 -97.41,-18.29 -147.35,-39.74 -37.12,-15.95 -21.16,-31.8 -33.76,-64.66 -12.12,-31.63 -40.37,-34.84 -96.97,-27 -37.97,5.26 -29.7,18.46 -39.89,56.68 -22.13,82.95 -83.35,4.14 -105.21,5.78 -31.82,12 -68.88,53.42 -79.51,88.52 9.82,43.44 68.73,94.87 -13.26,117.38 -35.77,9.82 -40.98,7.09 -43.52,51.07 -3.03,52.63 -3.58,83.11 24.99,98.02 13.87,7.24 10.7,2.45 24,6.74 25.94,8.36 24.72,3.19 34.27,31.08 16.73,48.86 -77.66,88.02 34.23,164.89 31.18,21.42 51.77,-9.77 79.91,-25.33 80.2,32.66 23.38,44.83 56.63,84.64 16.59,19.86 103.33,19.93 115.31,0.68 17.21,-27.66 8.63,-18.69 14.89,-43.62 22.61,-89.99 84.66,-0.33 111.07,-8.91 22.14,-19.01 63.46,-63.85 74.29,-88.16 -7.7,-36.8 -17.47,-32.11 -31.26,-67.58l13.88 -39.13c71.62,-30.32 73.41,8.9 73.65,-95.97 -0.25,-85.44 -13.39,-53.99 -73.66,-78.31l-14.02 -39.92z"/>
  </g>
 </g>
</svg>
