<?xml version="1.0" encoding="UTF-8"?>
<!DOCTYPE svg PUBLIC "-//W3C//DTD SVG 1.0//EN" "http://www.w3.org/TR/2001/REC-SVG-20010904/DTD/svg10.dtd">
<!-- Creator: CorelDRAW 2020 (64 Bit Versão de avaliação) -->
<svg xmlns="http://www.w3.org/2000/svg" xml:space="preserve" width="200mm" height="200mm" version="1.0" style="shape-rendering:geometricPrecision; text-rendering:geometricPrecision; image-rendering:optimizeQuality; fill-rule:evenodd; clip-rule:evenodd"
viewBox="0 0 4488.33 4488.33"
 xmlns:xlink="http://www.w3.org/1999/xlink"
 xmlns:xodm="http://www.corel.com/coreldraw/odm/2003">
 <defs>
  <style type="text/css">
   <![CDATA[
    .fil0 {fill:#3D3B46}
    .fil1 {fill:white}
   ]]>
  </style>
 </defs>
 <g id="Camada_x0020_1">
  <metadata id="CorelCorpID_0Corel-Layer"/>
  <g id="_2825230952944">
   <path class="fil0" d="M1184.76 1123.79l184.03 189.87 -232.58 243.24c-66.93,67.14 -15,92.06 30.57,140.18 39.82,42.07 79.21,80.8 118.57,121.68 -92.98,89.36 -243.1,251.67 -339.99,352.23 -29.51,30.63 -55.53,57.28 -84.81,88.35 -16.21,17.2 -83.41,68.04 -44.73,110.53 17.76,19.51 196.22,99.89 225.5,126.31 -73.36,-4.04 -155.61,-0.35 -230.1,-0.62 -94.79,-0.34 -78.06,19.61 -77.62,156.52 0.51,159.4 -0.45,319.05 -0.25,478.43 -69.77,-7.3 -525.57,-1.5 -635.58,-1.47 -21.42,0 -55.51,-3.84 -74.06,5.56 -22.64,11.47 -23.79,32.66 -23.7,62.22l0.17 1160.61c0,153.15 -13.19,129.23 199.63,129.42 82.19,0.08 71.45,-72.52 45.33,-85.62 -19.53,-9.79 -128.38,-5.84 -158.18,-4.55l-0.64 -544.29 1380.19 -0.01 0.15 543.95c-29.19,-0.32 -797.93,-5.32 -823.34,2.76 -16.96,5.39 -30.97,25.61 -25.44,52.35 9.7,46.88 76.6,35.21 120.56,35.18l1354.17 0.02c400.68,-3.05 802.53,1.17 1203.71,0.01l1053.24 -0.03c43.95,0 112.37,11.14 131.09,-23.87 13.35,-24.98 5.18,-2258.81 5.32,-2496.85 0.08,-124.56 -5.21,-103.57 -204.36,-103.57l-1805.56 0c-92.38,0 -212.47,-6.41 -300.49,3.18l-282.33 -564.49c-49.6,-100.31 -96.61,-13.41 -192.95,85.42l-353.06 370.42c-39.42,-47.39 -94.01,-99.59 -137.9,-144.14l125.24 -132.24c178.01,-187 179.8,-136.82 37.28,-288.97l-128.61 -133.78c32.41,-73.48 47.19,-141.88 -0.13,-216.44 -37.92,-59.75 -358.55,-382.01 -429.95,-456.53 -14.41,-15.04 -22.18,-18.25 -36.71,-32.49l-65.35 -73.35c-57.05,-60.08 -214.99,-240.57 -283.38,-266.19 -192.3,-72.05 -362.92,177.7 -198.54,343.36 62.61,63.09 183.36,196.84 236.22,244.05l100.83 106.79c56.31,58.86 355.46,377.82 406.68,415.28 87.76,64.18 170.37,13.88 211.84,1.57z"/>
   <path class="fil1" d="M1409.45 1823.47l147.4 149.43c50.54,51.04 -9.19,120.11 -62.37,65.04 -17.39,-18.01 -30.65,-32.61 -48.45,-50.67 -17.41,-17.67 -30.69,-33.68 -48.2,-50.92 -9.59,-9.45 -15.33,-15.35 -24.48,-24.75 -20,-20.53 -12.38,-18.3 -30.17,-26.69 -21.38,25.64 3.48,4.24 -33.4,39.2l-13.64 16.07c-12.73,12.4 -16.16,7.86 -28.53,25.97 -18.42,26.98 -6.47,9.32 -27.3,26.82 -13.44,11.29 -12.19,19.91 -24.28,30.35 -18.22,15.73 -13.49,5.12 -27.96,26.68 -16.58,24.69 -9.86,8.68 -28.11,26 -14.12,13.4 -8.8,18.08 -24.37,30.13 -17.46,13.51 -12.86,6.27 -25.18,24.59 -16.6,24.71 -9.78,8.62 -28.07,26.04 -13.93,13.26 -9.04,18.21 -24.43,30.09 -20.21,15.61 -12.26,6.42 -27.05,27.69 -14.13,20.32 -13.2,8.66 -28.66,25.47 -15.72,17.1 -4.29,14.54 -24.89,29.51 -20.39,14.81 -11.45,9.53 -26.06,28.74 -9.45,12.42 -16.67,12.36 -28.62,23.84 14,20.59 325.72,182.03 348.21,194.7 118.37,66.71 236.76,123.72 354.08,191.95 104.72,60.9 240.13,128.26 353.67,192.21 149.91,84.43 269.74,108.45 393.76,-13.65 39.05,-38.45 78.05,-109.04 81.06,-191.07 3.15,-85.73 -31.27,-150.59 -63.33,-212.33 -63.02,-121.34 -120.91,-243.69 -185.81,-367.16 -16.15,-30.72 -28.26,-58.86 -44.6,-89.78l-45.12 -93.9c-31.61,-63.13 -63.64,-118.81 -94.96,-184.35l-137.21 -276.11c-14.78,-32.05 -32.28,-58.19 -47,-91.89l-6.48 3.3c-15.92,10.51 -12.15,10.32 -21.41,23.29 -14.4,20.17 -13.48,8.88 -28.71,25.42 -15.71,17.06 -4.22,14.53 -24.87,29.53 -20.43,14.84 -11.42,9.57 -26.06,28.73 -11.57,15.14 -15.96,9.05 -29.03,25.19 -17.03,21.04 -1.01,10.94 -25.57,28.71 -18.6,13.46 -11.35,13.71 -25.18,29.61 -11.55,13.29 -16.09,7.6 -29.02,25.33 -17.6,24.12 -1.25,8.57 -26.42,27.76 -12.84,9.79 -14.13,19.83 -24.55,30.18 -12.7,12.62 -15.12,6.01 -28.66,25.84 -18.42,26.98 -6.42,9.31 -27.31,26.82 -13.62,11.42 -12.09,19.83 -24.26,30.36 -18.07,15.63 -13.6,5.37 -27.96,26.68 -6.87,10.2 -22.74,20.38 -50.43,55.99z"/>
   <polygon class="fil1" points="1553.05,4397.21 2932.59,4396.12 2933.21,3852.56 1552.36,3852.36 "/>
   <polygon class="fil1" points="3019.54,4019.4 3019.59,4396.36 4399.2,4396.1 4399.85,3852.22 3019.65,3852.42 "/>
   <polygon class="fil1" points="3019.44,2495.93 4399.87,2495.62 4399.77,1951.67 3020.22,1952.32 "/>
   <polygon class="fil1" points="1552.99,3762.56 2933.59,3762.54 2933.15,3218.59 1553.62,3219.81 "/>
   <polygon class="fil1" points="3019.51,3762.54 4399.82,3762.54 4399.75,3218.9 3020.44,3219.83 "/>
   <polygon class="fil1" points="86.33,3762.77 1466.61,3762.53 1466.65,3219.24 87.74,3219.82 "/>
   <path class="fil1" d="M2287.06 3045.63l-1.11 85.56 1380.48 -2.14 -0.04 -543.73 -1137.7 0.3c40.31,182.51 -29.83,344.25 -178.66,430.57 -21.54,12.5 -42.73,17.65 -62.97,29.43z"/>
   <path class="fil1" d="M819.74 3129.93l1379.84 -0.86 0.41 -68.54c-66.77,3.64 -135.72,-10.89 -189.74,-39.94l-751.59 -409.03c-33.92,-16.77 -42.26,-26.21 -88.18,-26.01l-350.94 -0.26 0.2 544.64z"/>
   <polygon class="fil1" points="3752.93,3129.99 4399.51,3129.07 4399.89,2585.07 3752.56,2585.63 "/>
   <path class="fil1" d="M2491.07 2495.4l442.17 0.22 -0.11 -543.9 -712.18 1.33 135.72 268.56c24.1,51.55 124.36,241.73 134.4,273.79z"/>
   <path class="fil1" d="M341.75 93.21c-56.22,10.23 -105.05,69.66 -87.59,141.37 11.15,45.81 78.42,103.83 105.31,132.38l585.83 606.96c29.46,31.08 77.48,100.96 151.81,87.67 26.29,-4.7 54.78,-26.61 69.48,-47.7 18.41,-26.41 25.86,-64.58 14.8,-99.35 -8.18,-25.72 -32.5,-52.44 -48.76,-69.76l-74.69 -73.51c-28.46,-37.65 -15.46,-9.21 -42.98,-46.16 -17.15,-23.04 -36.71,-42.28 -59.19,-59.92l-57.25 -61.23c-16.2,-21.9 -39.49,-41.47 -59.88,-64.13l-234.15 -241.03c-25.94,-24.66 -35.23,-41.07 -56.8,-61.84l-60.69 -58.24c-22.15,-18.59 -63.4,-100.41 -145.24,-85.52z"/>
   <path class="fil0" d="M1729.47 2185.18c-43.24,13.02 -37.72,57.64 -14.29,82.19l369.32 383.08c14.92,15.53 41.82,57.13 78.63,45.69 39.78,-12.37 28.65,-62.6 10.03,-82.42 -21.11,-22.47 -39.24,-40.31 -60.62,-63l-292.8 -301.26c-14.69,-13.82 -52.32,-75.7 -90.27,-64.27z"/>
  </g>
 </g>
</svg>
