<?xml version="1.0" encoding="UTF-8"?>
<!DOCTYPE svg PUBLIC "-//W3C//DTD SVG 1.0//EN" "http://www.w3.org/TR/2001/REC-SVG-20010904/DTD/svg10.dtd">
<!-- Creator: CorelDRAW 2020 (64 Bit Versão de avaliação) -->
<svg xmlns="http://www.w3.org/2000/svg" xml:space="preserve" width="29.2233mm" height="34.8154mm" version="1.0" style="shape-rendering:geometricPrecision; text-rendering:geometricPrecision; image-rendering:optimizeQuality; fill-rule:evenodd; clip-rule:evenodd"
viewBox="0 0 512.69 610.8"
 xmlns:xlink="http://www.w3.org/1999/xlink"
 xmlns:xodm="http://www.corel.com/coreldraw/odm/2003">
 <defs>
  <style type="text/css">
   <![CDATA[
    .fil0 {fill:#606062}
   ]]>
  </style>
 </defs>
 <g id="Camada_x0020_1">
  <metadata id="CorelCorpID_0Corel-Layer"/>
  <path class="fil0" d="M200.46 280.02l-177.76 0c-15,0 -22.7,7.63 -22.7,22.62l0 285.72c0,25.91 21.06,22.26 42.72,22.26l445.93 0c15.75,0 24.03,-6.11 24.03,-22.26l0 -285.72c0,-14.98 -7.69,-22.62 -22.7,-22.62l-178.24 0 0.48 -10.87 -111.78 -0.22 0.01 11.1zm-173.88 301.79l459.4 0.01 0.12 -273.07 -173.86 -0 -0.01 12.95 -111.79 0.06 0 -13.01 -173.87 0 0 273.06z"/>
  <polygon class="fil0" points="237.15,263.83 286.1,263.87 345.73,0.19 296.96,0.02 "/>
  <path class="fil0" d="M231.41 263.52c6.39,-17.72 11.19,-46.19 15.37,-65.18 8.77,-39.87 11.44,-32.55 3.78,-66.15 -5.03,-22.07 -9.87,-44 -15.06,-66.43 -3.84,-16.58 -9.85,-52.53 -15.32,-65.75l-47.77 0 59.01 263.52z"/>
  <path class="fil0" d="M255.65 496.93l14.49 0.64 0.09 -69.45 11.94 69.09 15.79 0.42c1.11,-10.87 7.26,-59.31 10.55,-65.67l0.5 65.05 15.62 0.56 0 -104.43 -23.05 0.01 -10.74 72 -12.15 -71.64 -23.04 -0.19 0.01 103.62z"/>
  <path class="fil0" d="M131.4 497.01l14.91 0.15 0.01 -69.6c0.39,0.32 0.68,0.43 0.78,1l19.79 68.61 16.56 0.46 0 -104.48 -14.65 0.55 0 56.4c-0.82,-0.92 -1.09,-1.18 -1.92,-2.99 -0.75,-1.62 -0.57,-1.22 -1.19,-3.11l-13.47 -50.76 -20.83 0.11 0.01 103.67z"/>
  <path class="fil0" d="M190.89 497.55l15.19 -0.29c0.52,-3.74 0.97,-6.86 1.43,-10.04 0.77,-5.3 -0.26,-6.27 3.44,-8.61l16.02 0c4.11,2.95 3.78,12.9 4.57,18.4l16.71 0.62 -12.66 -79.43c-1.06,-6.58 -0.98,-21.55 -5.95,-25.05l-20.03 0c-3.65,1.08 -4.95,18.2 -6.04,24.93l-12.69 79.48zm20.15 -33.47l15.47 -0.01 -7.7 -50.18 -7.76 50.19z"/>
  <polygon class="fil0" points="336.49,497.54 381.3,497.16 381.28,483.29 353.15,482.45 352.97,452.65 375.46,452.05 375.55,437.16 353.19,437.05 352.97,408.63 381.26,407.93 381.29,393.83 336.49,393.1 "/>
 </g>
</svg>
