<?xml version="1.0" encoding="UTF-8"?>
<!DOCTYPE svg PUBLIC "-//W3C//DTD SVG 1.0//EN" "http://www.w3.org/TR/2001/REC-SVG-20010904/DTD/svg10.dtd">
<!-- Creator: CorelDRAW 2020 (64 Bit Versão de avaliação) -->
<svg xmlns="http://www.w3.org/2000/svg" xml:space="preserve" width="200mm" height="200mm" version="1.0" style="shape-rendering:geometricPrecision; text-rendering:geometricPrecision; image-rendering:optimizeQuality; fill-rule:evenodd; clip-rule:evenodd"
viewBox="0 0 22543.09 22543.09"
 xmlns:xlink="http://www.w3.org/1999/xlink"
 xmlns:xodm="http://www.corel.com/coreldraw/odm/2003">
 <defs>
  <style type="text/css">
   <![CDATA[
    .fil0 {fill:#606062}
    .fil2 {fill:#838383}
    .fil1 {fill:#949494}
   ]]>
  </style>
 </defs>
 <g id="Camada_x0020_1">
  <metadata id="CorelCorpID_0Corel-Layer"/>
  <g id="_2825236262688">
   <path class="fil0" d="M2769.5 14661.45c35,-54.76 437.76,-365.42 525.38,-436.14l7317.45 -5915.06c431.68,-349.02 297.72,-296.51 670.39,-296.51 306.19,0 240.81,-29.86 404.08,102.18l8086.72 6545.71 -17004.02 -0.18zm9381.56 -7569.37c-32.9,-16.81 -11.63,12.23 -20.77,-33.06l0.99 -134.48c0.12,-1838.4 14.45,-3693.29 -0.2,-5527.38l2205.11 -0.17c0,-179.8 15.39,-1319.38 -9.61,-1396.45l-6122.97 -0.53 -3.4 1400.12 2204.91 0.86 0.01 5693.19c-97.99,51.61 -496.11,420.94 -647.07,525.4 -234.61,162.37 -452.15,361.99 -655.85,529.93 -217.6,179.41 -424.28,349.86 -641.96,529.2l-1955.56 1587.5c-439.49,354.75 -865.81,710.4 -1298.64,1070.63l-324.69 255.46c-111.87,92.19 -212.91,175.45 -324.69,267.62l-2434.97 1995.23c-45.66,37.48 -122.05,88.3 -170,127.49l-1298.62 1070.64c-116.09,95.72 -598.9,458.24 -653.08,535.12l7378.61 0.67c54.95,713.76 213.76,1213.03 690.84,1789.18l215.46 223.37c336.44,333.81 825.57,648.81 1380.98,847.67 1072.48,383.99 2120.67,378.21 3197.52,6.32 166.09,-57.35 486.21,-198.89 624.07,-278.53 211.8,-122.35 354.68,-227.04 528.39,-367.77 733.88,-594.53 1131.58,-1344.89 1146.6,-2216.14l7380.61 -4.17 -1612.35 -1320.38c-354.67,-292.43 -780.99,-658.28 -1129.17,-930.52 -58.42,-45.67 -122.87,-89.03 -169.6,-127.82l-6013.88 -4920.95c-30.82,-23.39 -58.95,-37.06 -88.8,-60.6l-1378.22 -1136.61z"/>
   <path class="fil0" d="M4630.65 19960.92c41.13,57.89 1143.92,937.21 1209.98,986.42 46.55,-20.92 2134.88,-1703.76 2175.66,-1757.75l-1214.9 -982.6c-47.52,19.07 -46.69,23.58 -81.8,52.57l-1951.93 1578.33c-49.98,40.34 -106.76,72.7 -137.01,123.03z"/>
   <path class="fil0" d="M14526.79 19207.33l2158.64 1741.44 1229.16 -986.07c-45.66,-56.19 -1490.27,-1211.3 -1621.68,-1317.77l-544.84 -437.63c-193.74,181.11 -1161.37,905.35 -1221.27,1000.02z"/>
   <polygon class="fil0" points="12129.26,22543.1 12129.26,20065.23 10402.75,20069.44 10405.12,22543 "/>
   <path class="fil1" d="M12151.06 7092.08l-5.21 -5682.02c266.62,0 2104.07,18.33 2198.77,-9.96 24.98,-113.12 2.95,-1040.85 6.65,-1319.51 0.97,-73.43 0.73,-65.75 -24.71,-80.05 25,77.07 9.61,1216.65 9.61,1396.45l-2205.11 0.17c14.65,1834.09 0.33,3688.98 0.2,5527.38l-0.99 134.48c9.14,45.29 -12.13,16.25 20.77,33.06z"/>
   <path class="fil2" d="M12129.26 22543.1l10.67 -2480.09c-86.62,-25.26 -1324.02,-7.43 -1632.29,-10.25 -102.95,-0.94 -82.46,-1.07 -104.89,16.68l1726.51 -4.22 0 2477.87z"/>
  </g>
 </g>
</svg>
