<?xml version="1.0" encoding="UTF-8"?>
<!DOCTYPE svg PUBLIC "-//W3C//DTD SVG 1.0//EN" "http://www.w3.org/TR/2001/REC-SVG-20010904/DTD/svg10.dtd">
<!-- Creator: CorelDRAW 2020 (64 Bit Versão de avaliação) -->
<svg xmlns="http://www.w3.org/2000/svg" xml:space="preserve" width="200mm" height="200mm" version="1.0" style="shape-rendering:geometricPrecision; text-rendering:geometricPrecision; image-rendering:optimizeQuality; fill-rule:evenodd; clip-rule:evenodd"
viewBox="0 0 1573.04 1573.04"
 xmlns:xlink="http://www.w3.org/1999/xlink"
 xmlns:xodm="http://www.corel.com/coreldraw/odm/2003">
 <defs>
  <style type="text/css">
   <![CDATA[
    .fil0 {fill:#606062}
   ]]>
  </style>
 </defs>
 <g id="Camada_x0020_1">
  <metadata id="CorelCorpID_0Corel-Layer"/>
  <path class="fil0" d="M1098.34 1416.72l228.61 0.13 0.49 101.33 -229.21 0.13 0.1 -101.59zm-822.15 -674.19c-3.85,3.96 -3.89,4.45 -4.17,11.76 -0.21,5.4 0.04,10.58 -0.29,16.1l0.36 13.15 -0.25 16.99c1.9,66.47 -0.54,140.84 0.17,209.07 0.22,21.05 10.76,37.99 30.18,30.62 17.63,-6.69 15,-28.32 15.01,-52.37 0.03,-58.58 -2.31,-157.87 0.25,-207.35 -0.43,-14.82 3.56,-47.26 -18.05,-51.97 -2.83,-0.62 -5.61,-0.75 -8.48,-0.27 -5.13,0.85 -6.23,2.53 -7.92,4.69 -4.02,2.08 -6.91,5.75 -6.8,9.57zm853.36 21.05c2.46,-1.57 18.89,-21.1 21.05,-24.58 4.05,-3.09 7.43,-7.43 10.08,-12.17l5.4 -6.1c3.84,-3.38 7.48,-7.5 9.91,-12.54 4.02,-2.2 23.25,-25.39 27.18,-30.7 11.08,-14.99 3.77,-34.87 -7.4,-41.08 -17.74,-9.87 -28.56,8.94 -35.46,17.12 -8.67,10.3 -19.7,21.89 -27.19,32.46l-22.41 26.56c-2.46,2.34 -5.21,4.8 -6.22,8.65 -5.31,3.32 -9.04,8.32 -12.23,13.59l-6.41 -7.4c-0.49,-6.28 -4.23,-12.02 -6.24,-18.64 -2.18,-7.17 -3.91,-14.83 -5.04,-22.58 -2.43,-16.7 -1.82,-34.32 1.45,-50.68 17.66,-88.24 106.22,-130.71 172.69,-71.65 33.02,29.33 56.33,96.74 30.12,158.09 -23.24,54.38 -74.11,82.64 -124.86,66.96l-15.07 -6.75c-5.25,-1.8 -9.85,-6.73 -15.04,-7.78 1.38,-5.18 0.61,-2.6 2.36,-5.87 1.02,-1.92 1.69,-1.99 3.32,-4.89zm-429.58 493.29l35.61 0.38 11.55 -0.2 9.15 -0.04 8.21 -0.05c44.01,-0.19 35.5,-17.94 35.5,-93.96 0,-22.94 2.8,-42.84 -12.24,-52.54 -8.73,-5.63 -94.45,-2.96 -110.8,-3 -20.12,-0.05 -30.38,6.54 -30.65,30.46 -0.25,22.17 0.01,44.58 0.01,66.78 -0,21.33 -2.42,46.29 14.43,49.06 2.32,3.11 2.45,2.85 7.58,3.38 2.94,0.31 5.91,-0.05 8.83,-0.27l12.78 0.21 10.03 -0.22zm824.75 -997.48c14.47,-6.85 32.74,-37.33 38.89,-58.02l4.48 -15.7c6.72,-46.19 8.24,-81.51 -5.81,-124.25 -5.75,-17.5 -15.38,-34.89 -24.09,-43.29 -15.08,-14.54 -21.92,-18.16 -47.04,-18.14 -81.38,0.08 -162.74,0 -244.12,0 -41.61,0 -69.94,1.83 -101.95,23.28 -61.36,41.12 -86.81,102.68 -86.79,187.26 0.01,25.74 1.1,128.36 -0.38,144.87 -47.43,-2.61 -100.1,-0.22 -148.14,-0.22l-745.06 -0c-87.42,0.01 -80.22,-9.79 -80.22,82.22 0,58.84 0.76,118.4 -0.07,177.18 -39.29,7.95 -71.56,48.24 -80.91,92.65 -5.1,24.22 -3.14,62 -3.14,88.8l0 188.49c0,69.81 -5.83,126.85 54.71,169.62 10.25,7.24 20.47,8.46 29.05,13.87 2.34,27.43 -0.22,172.53 0.34,218.59 0.18,14.5 4.48,22.8 13.02,27.73 8.66,5 59.33,2.81 72.54,2.43 1.88,25.2 0.33,58.76 0.33,84.86 0,28.26 -5.4,60.28 15.26,68.63 9.88,3.99 124.02,1.54 144.2,1.54 18.66,0 136.3,1.53 144.37,-1.33 21.09,-7.46 15.65,-41.02 15.71,-67.17 0.05,-24.46 -1.95,-63.87 0.47,-86.47l562.57 0.05c0.74,28.2 0.09,57.03 0.09,84.75 0,26.15 -5.38,61.68 15.8,68.81 15.48,5.21 119.58,0.97 144.34,1.31 19.87,0.27 134.43,2.38 144.18,-1.45 20.33,-7.97 15.27,-39.18 15.27,-67 0,-28.6 -0.55,-57.96 0.1,-86.47 76.01,1.37 70.63,5.65 70.95,-75.33 1.03,-263.68 0,-530.03 0,-794 0,-52.8 0.26,-105.69 0.03,-158.48 -0.14,-33.53 -14.13,-33.83 -40.04,-33.82 -22.34,0.01 -45.48,-0.7 -67.72,0.15 -1.08,-13.79 -2.15,-60.01 2.42,-70.2 8.7,-19.39 26.86,-15.52 48.37,-15.52 17.01,0 116.42,1.42 124.43,-0.96 7.23,-1.93 10.01,-3.8 13.56,-9.27zm-770.19 943.41l-62.63 0.38 -0.35 -9.57 -0.12 -32.6 63.29 -0.12 -0.19 41.91zm-572.21 -181.58c4.94,26.89 38.42,27.04 43.79,0.89 1.7,-8.29 1.79,-265.18 0.07,-273.79 -5.25,-26.37 -37.52,-26.96 -43.54,-1.16 -2.61,11.19 -0.9,73.85 -0.9,90.59 -0,24.53 -1.43,172.56 0.58,183.49zm180.6 0c5.31,27.28 38.41,26.89 43.79,0.87 1.71,-8.24 1.8,-265 0.06,-273.76 -5.05,-25.5 -37.23,-27.42 -43.52,-1.2 -1.79,7.45 -2.26,264.18 -0.33,274.08zm531.75 140.2l63.25 -0.5 -0.08 42.51 -63.22 -0.11 0.05 -41.9zm-45.03 71.64c2.47,28.57 27.48,23.88 50.28,23.88 23.04,0 46.1,-0.11 69.14,0.01 30.62,0.16 34.06,-8.85 34.03,-43.91 -0.02,-23.78 1.81,-59.41 -0.17,-81.72 -0.98,-11.03 -7.54,-20.16 -15.99,-22.77 -7.5,-2.31 -92.1,-1.04 -103.94,-1.08 -30.34,-0.11 -33.48,9.41 -33.46,43.85 0.01,23.79 -1.81,59.38 0.12,81.74zm-361.38 -72.04l63.33 -0.09 0.1 42.53 -63.37 -0.67 -0.06 -41.77zm-45.04 72.04c2.74,28.69 27.38,23.64 50.3,23.83 23.05,0.18 46.1,-0.06 69.14,0.06 32.82,0.17 34.11,-10.84 34.08,-43.91 -0.02,-23.6 1.83,-59.62 -0.27,-81.71 -1.01,-10.6 -7.6,-20.24 -15.93,-22.81 -7.34,-2.26 -92.26,-1.01 -103.96,-1.05 -30.22,-0.11 -33.52,9.59 -33.49,43.85 0.02,23.09 -1.92,60.38 0.12,81.74zm763.15 -114.39c-59.45,24.07 -110.74,-29.58 -101.74,-94.03 13.14,-94.12 125.56,-97.33 143.98,-6.97 6.26,30.74 -0.65,40.04 -7.03,64.24 -12.39,-8.55 -37.01,-48.85 -47.53,-54.74 -17.21,-9.63 -35.79,7.8 -32.19,29.65 2.89,17.55 38.53,46.91 44.52,61.84zm88.62 -64.09c3.09,-38.47 -5.75,-79.55 -26.83,-106.71 -73.88,-95.18 -198.06,-44.5 -209.05,74.8 -7.72,83.79 43.99,146.34 104.74,155.12 67.71,9.78 125.34,-51.19 131.14,-123.21zm-126.22 -570.78c-80.86,8.85 -148.99,91.28 -140.22,198.64 7.7,94.23 78.21,173.27 169.02,163.24 78.99,-8.72 145.9,-93.89 137.23,-198.33 -7.72,-93 -77.55,-173.24 -166.03,-163.55zm-637.44 76.6l379.1 0.07 0.1 211.45 -379.32 -0.07 0.13 -211.45zm-29.62 -51.93c-13.11,5.49 -15.58,17.02 -15.53,35.68l0.07 218.52c-0.05,15.47 -3.35,39.17 3.87,50.69 8.74,13.95 18.01,11.88 35.87,11.88l231.42 0c30.56,-0 61.15,0.16 91.72,-0.02 16.06,-0.1 81.12,2.32 91.26,-1.36 12.23,-4.43 15.38,-16.12 15.32,-34.44l-0.02 -165.19c0,-19.5 3.01,-92.51 -3.01,-103.98 -7.45,-14.19 -18.66,-13.3 -35.83,-13.16 -53.71,0.46 -406.1,-2.4 -415.15,1.39zm-286.14 908.36l229.01 0 0.08 101.39 -229 0.07 -0.09 -101.46zm-85.75 -1007.77l1268.63 -0.36 -0.04 954.59 -1268.72 0.06 0.13 -954.3zm-84.23 620.91l38.98 0.19 -0.03 81.21c-14.13,-6.52 -21.43,-14.76 -28.9,-27.94 -10.16,-17.92 -9.38,-29.59 -10.04,-53.46zm0.15 -112.46l38.78 0.11 0.01 58.98 -38.83 -0.01 0.04 -59.07zm-0 -112.99l38.68 -0.04 0.09 59.76 -38.61 -0.05 -0.16 -59.66zm38.84 -133.92l-0.04 80.52 -38.93 0.01c0.66,-23.4 -0.19,-33.43 9.29,-51.55 5.29,-10.1 17.23,-25.16 29.67,-28.98zm1410.51 -615.86c13.36,-5.26 21.69,15.13 25.63,27.45 25.27,79.08 -19.29,185.58 -50.12,104.3 -17.86,-47.07 -3.42,-120.75 24.49,-131.75zm-391.28 300.17c-1.93,-25.51 -0.21,-59.56 -0.48,-85.99 -0.78,-77.01 -6.64,-146.93 56.19,-193.62 39.48,-29.33 77.67,-21.36 128.45,-21.85 25.66,-0.25 127.95,-1.42 146.29,0.34 -9.66,27.85 -16.56,43.8 -16.95,80.01 -0.47,43.42 6.25,51.2 14.67,82.29 -21.56,-0.58 -43.42,0.03 -65.01,-0.06 -23.71,-0.1 -33.73,4.4 -49.6,17.57 -34.46,28.6 -26.46,78.71 -27.11,121.61l-186.47 -0.3z"/>
 </g>
</svg>
