<?xml version="1.0" encoding="UTF-8"?>
<!DOCTYPE svg PUBLIC "-//W3C//DTD SVG 1.0//EN" "http://www.w3.org/TR/2001/REC-SVG-20010904/DTD/svg10.dtd">
<!-- Creator: CorelDRAW 2020 (64 Bit Versão de avaliação) -->
<svg xmlns="http://www.w3.org/2000/svg" xml:space="preserve" width="200mm" height="200mm" version="1.0" style="shape-rendering:geometricPrecision; text-rendering:geometricPrecision; image-rendering:optimizeQuality; fill-rule:evenodd; clip-rule:evenodd"
viewBox="0 0 3943.91 3943.91"
 xmlns:xlink="http://www.w3.org/1999/xlink"
 xmlns:xodm="http://www.corel.com/coreldraw/odm/2003">
 <defs>
  <style type="text/css">
   <![CDATA[
    .fil0 {fill:#606062}
   ]]>
  </style>
 </defs>
 <g id="Camada_x0020_1">
  <metadata id="CorelCorpID_0Corel-Layer"/>
  <path class="fil0" d="M2959.84 2524.28c85.58,85.11 -7.38,160.48 -40,175.08 -81.65,36.56 -133.71,-71.85 -176.92,-109.95l-224.4 -230.41c-26.34,-27.81 -46.09,-50.52 -71.91,-79.92 -26.24,-29.89 -42.58,-52.64 -70.66,-81.21l-362.67 -384.01c-120.85,-131.65 -285.45,-232.84 -110.51,-322.29 88.92,-45.47 156.72,84.76 248.79,184.23l660.51 692.8c26.23,30.12 43.64,51.24 70.54,81.29 29.24,32.66 44.91,42.26 77.23,74.39zm-31.58 -1641.25c140.49,-83.56 248.71,152.54 108.32,216.76 -149.01,68.16 -248.64,-133.3 -108.32,-216.76zm-1.6 -189.06c-388.76,77.45 -283.21,662.12 111.89,592.09 148.81,-26.38 272.85,-169.2 239.72,-351.24 -26.37,-144.89 -175.04,-276.03 -351.62,-240.85zm-2379.32 507.87c63.37,67.78 125.73,147.31 199.44,205.28 67.17,-45.61 409.53,-388.76 484.36,-455.95 45.97,-41.28 279.45,-251.27 299.11,-286.08l-200.05 -209.71c-150.02,126 -328.84,312.84 -489.93,454.97l-292.92 291.49zm2413.59 2229.89c31.82,-49.29 421.71,-415.53 456.88,-433.36l114.51 374.37c-60.19,70.61 -125.12,99.8 -189.54,190.03 -96.88,-5.18 -277.14,-104.13 -381.84,-131.05zm-260.35 45.44l770.28 297.88c76.23,26.55 201.24,105.35 277.05,42.67 73.03,-60.39 23.51,-172.26 -3.63,-256.83 -30.84,-96.1 -57.53,-182.09 -87.34,-275.31l-162.23 -514.57c-1.45,-3.35 -6.51,-13.12 -7.97,-15.85 -1.09,-2.04 -3.74,-5.72 -4.67,-7.34 -0.94,-1.62 -3.06,-4.98 -4.88,-7.25l-292.82 268.88c-38.6,36.09 -57.03,65.41 -97.93,100.22l-192.02 181.34c-64.56,57.93 -130.04,105.37 -193.83,186.18zm-2222.18 -2670.09c-46.32,-21.97 -127.54,-118.62 -147.84,-151.69l240.41 -224.57c62.41,-54.9 182.11,-192.77 247.5,-220.89l130.12 151.78 -470.2 445.37zm383.04 -807.09l-103.37 0c-94.39,60.3 -0.86,-26.02 -151.94,104.28 -45.15,38.94 -95.1,79.6 -134.08,122.84 -47.34,52.51 -82.37,81.65 -132.44,124.33 -103.77,88.44 -218.04,188.99 -215.43,313.75 1.91,91.22 41.09,129.92 83.43,177.25l259.12 267.69 683.47 -636.81c43.41,-46.15 55.63,-61.54 99.98,-99.94l-267.93 -293.86c-49.37,-48.4 -70.58,-43.18 -120.8,-79.53zm3082.47 1178.1l0 -61.63c-62.31,-90.67 -136.75,-161.74 -216.53,-246.55 -76.16,-80.97 -155.53,-155.52 -231.14,-235.53l-168.73 -181.41c-182.17,-169.5 -327.01,-395.87 -444.68,-384.11 -74.02,7.4 -304.3,263.61 -377.83,335.72 -118.64,116.34 -178.45,158.21 -297.28,286.18l-185.07 174.26 280.48 309.17c63.69,61.04 94.4,94.6 147.42,155.94l147.81 155.58c63.36,67.64 165.22,18.47 144.99,-83.58 -9.87,-49.79 -210.76,-230.74 -289.94,-320.08 -26.04,-29.38 -44.9,-49.64 -72.67,-79.01 -14.09,-14.9 -19.69,-19.97 -34.6,-34.87 -32.88,-32.85 -20.51,-9.03 -37.99,-50.84 290.99,-233.15 499.5,-589.46 665.22,-471.99 26.91,19.08 35.78,37.41 59.13,57.78 135.08,117.86 203.39,223.96 359.08,364.19l172.92 188.73c91.13,140.38 -88.32,242.3 -141.49,301.72 -125.13,139.83 -209.22,193.96 -303.96,291.14l-184.67 186.47c29.32,37.32 120.47,151.75 173.65,173.2 139.54,-170.52 677.86,-629.51 835.87,-830.47zm-3943.91 1650.86l0 66.72c73.72,97.72 -11.13,17.29 118.14,136.59l815.96 852.66c28.84,29.06 43.48,32.08 72.17,58.98l77.15 0c67.05,-59.1 15.43,3.89 116.99,-106.45l574.41 -545.9c32.18,-29.21 75.76,-82.18 108.2,-113.26 42.21,-40.43 79.26,-73.35 120.19,-110.44 -29.15,-56.79 -109.81,-123.31 -159.61,-174.39 -44.16,18.32 -53.38,39.56 -97.99,88.9 -31.39,34.73 -60.42,60.62 -95.27,91.5 -156.19,138.39 -245.04,237.71 -387.37,371.06 -92.63,86.79 -138.2,155.63 -231.74,142.58 -89.39,-12.47 -217.6,-180.66 -294.78,-263.47 -34,-36.47 -69.62,-60.45 -102.2,-95.94 -36.25,-39.51 -257.26,-264.28 -270.14,-303.12 -24.51,-73.91 2.52,-117.08 34.16,-155.47 128.24,94.01 264.93,343.65 371.74,264.86 95.68,-70.59 -30.28,-172.3 -61.33,-207.57 -51.44,-58.44 -106.51,-127.55 -175.51,-172.55 18.69,-39.25 36.76,-57.11 73.21,-74.9 40,60.26 92.67,105.95 164.97,173.08 33.38,31 128.06,173.51 209.48,83.41 102.34,-113.26 -204.1,-290.63 -248.2,-385.48l58.13 -61.65c70.11,45.12 109.4,121.77 171.26,173.1 47.5,39.42 132.97,173.29 213.2,83.33 80.22,-89.96 -90.54,-222.79 -167.88,-291.93 -33.65,-30.09 -64.84,-56.62 -78.95,-106.96 31.82,-21.41 25.97,-27.29 63.42,-44.41 59.87,42.38 220.45,246.29 279.26,272.98 59.54,27.02 182.02,-21.97 70.43,-117.61 -74.13,-63.53 -354.48,-397.32 -423.59,-433.56 -80.32,90.58 -141.96,146.1 -227.48,225.31l-574.13 557.7c-103.41,94.83 -54.8,57.27 -116.3,122.32zm1556.71 -1694.69c75.28,-52.99 125.56,34.63 161.45,76.65 54.7,64.05 14.81,117.89 -40.51,152.63 -48.68,30.58 -60.83,27.19 -102.48,-9.8 -28.39,-25.2 -43.43,-42.38 -62.9,-65.79 -70.11,-84.31 -6.71,-117.68 44.45,-153.69zm-728.17 355.72c17.61,52.26 467.39,504.42 544.6,590.82 157.61,176.37 406.91,419.86 554.64,588.78l662.6 696.93 390.29 -362.49c64.1,-70.83 364.67,-325.28 396.68,-378.64l-876.74 -937.04c-71.06,-79.93 -146.44,-148.11 -215.07,-228.46l-663.64 -700.82c-80.38,45.13 -668.72,634.38 -793.36,730.93z"/>
 </g>
</svg>
