<?xml version="1.0" encoding="UTF-8"?>
<!DOCTYPE svg PUBLIC "-//W3C//DTD SVG 1.0//EN" "http://www.w3.org/TR/2001/REC-SVG-20010904/DTD/svg10.dtd">
<!-- Creator: CorelDRAW 2020 (64 Bit Versão de avaliação) -->
<svg xmlns="http://www.w3.org/2000/svg" xml:space="preserve" width="200mm" height="200mm" version="1.0" style="shape-rendering:geometricPrecision; text-rendering:geometricPrecision; image-rendering:optimizeQuality; fill-rule:evenodd; clip-rule:evenodd"
viewBox="0 0 21491.07 21491.08"
 xmlns:xlink="http://www.w3.org/1999/xlink"
 xmlns:xodm="http://www.corel.com/coreldraw/odm/2003">
 <defs>
  <style type="text/css">
   <![CDATA[
    .fil0 {fill:#606062}
   ]]>
  </style>
 </defs>
 <g id="Camada_x0020_1">
  <metadata id="CorelCorpID_0Corel-Layer"/>
  <g id="_2825014253440">
   <path class="fil0" d="M3687.33 4630.02c-148.25,-576.54 82.19,-790.29 773.05,-793.9 2177.2,-11.26 11701.18,-101.18 12357.86,117.98l-51.14 663.29c-668,200.14 -12368.69,208.88 -13079.76,12.64zm8452.36 15714.7c161.74,-1215.69 76.22,-3801.9 76.22,-5157.67 0,-553.21 -123.73,-640.72 -692.79,-640.72 -2091.16,0 -2174.27,-173.06 -2174.27,640.72l0 4584.75c0,574.54 84.7,650.51 692.46,650.51 1023.44,6.2 1096.95,64.98 2098.38,-77.59zm-9410.05 -15568.93c72.06,770.2 962.69,703.51 1738.45,700.31l7448.43 -0.48c5251.16,0 5826.59,605.64 5818.2,-1558.54 -10.77,-2789.88 345.2,-2854.99 -1726.57,-2848.65l-7448.62 0.35c-5572.38,0 -5843.08,-563.82 -5833.96,1509.45 2.96,671.04 -56.11,1554.32 4.07,2197.57zm6739.77 16715.29l2721 0c333.06,-176.74 611.2,-218.74 890.57,-564.43 230.37,-285.06 309.96,-645.58 321.72,-1054.46 26.2,-909.64 -2.14,-1860.4 -2.14,-2774.84 0,-2143.3 505.81,-3589.47 -2112.36,-3626.88l2.21 -4395.45c2848.94,-40.19 5744.74,-13.16 8599.23,-3.88 697.13,2.28 1436.01,163.57 1554.19,-486.52 83.61,-459.93 66.38,-5261.34 -134.13,-5759.18 -622.64,-153.87 -1635.6,-98.96 -2374.13,-93.1 -116.85,-645.13 86.92,-1250.19 -277.54,-1799.26 -415.32,-625.7 -913.59,-721.55 -1322.99,-933.09l-14147.07 0c-1862.86,817.4 -1394.79,849.92 -1666.44,2732.34 -488.59,-4.16 -1011.16,-7.51 -1411.04,93.1 -420.99,1045.39 425.75,970.76 1445.63,966.7 -17.7,2112.24 431.72,2755.84 2807.08,2747.65l11539.78 -0.41c2394.03,3.65 3028.65,-463.1 2997.02,-2684.42l1387.34 -67.26 -6.48 4201.29c-1571.71,68.52 -9339.76,-234.25 -9988.14,181.62 -388.49,554.61 -167.25,4300.27 -161.48,5299.85 -2445.27,44.64 -1943.42,1771.34 -1943.42,3722.4 0,2975.84 -423.14,3519.8 1281.59,4298.22z"/>
   <path class="fil0" d="M3687.33 4630.02c711.08,196.25 12411.77,187.5 13079.75,-12.64l51.15 -663.29c-656.68,-219.16 -10180.66,-129.24 -12357.85,-117.98 -690.86,3.6 -921.3,217.36 -773.06,793.9z"/>
  </g>
 </g>
</svg>
