<?xml version="1.0" encoding="UTF-8"?>
<!DOCTYPE svg PUBLIC "-//W3C//DTD SVG 1.0//EN" "http://www.w3.org/TR/2001/REC-SVG-20010904/DTD/svg10.dtd">
<!-- Creator: CorelDRAW 2020 (64 Bit Versão de avaliação) -->
<svg xmlns="http://www.w3.org/2000/svg" xml:space="preserve" width="200mm" height="200mm" version="1.0" style="shape-rendering:geometricPrecision; text-rendering:geometricPrecision; image-rendering:optimizeQuality; fill-rule:evenodd; clip-rule:evenodd"
viewBox="0 0 12592.41 12592.41"
 xmlns:xlink="http://www.w3.org/1999/xlink"
 xmlns:xodm="http://www.corel.com/coreldraw/odm/2003">
 <defs>
  <style type="text/css">
   <![CDATA[
    .fil0 {fill:#606062}
   ]]>
  </style>
 </defs>
 <g id="Camada_x0020_1">
  <metadata id="CorelCorpID_0Corel-Layer"/>
  <path class="fil0" d="M1214.13 1499.14l10165.34 0 0 5370.58c0,127.55 1.4,255.67 0.98,383.07 -0.2,62.58 -5.12,123.95 -3.52,186.81 1.75,68.72 11.33,140.36 9.7,208.32 -3.85,160.9 -98.61,148.78 -206.88,138.77 -112.02,-10.34 -216.48,-3.39 -328.35,-3.98 -218.04,-1.13 -437.06,-1.4 -655.1,0.09 -215.13,1.46 -429.56,-10.45 -644.45,-5.34 -217.45,5.18 -432.85,5.23 -650.25,5.24 -432.82,0.03 -867.89,5.72 -1300.39,-4.87 -216.86,-5.31 -432.41,6.52 -649.26,5.04l-1305.46 0.28c-217.28,-1.11 -428.15,-7.93 -646.28,-2.77 -648.93,15.32 -1300.03,-1.6 -1947.94,-4.63 -215.7,-1.01 -433.68,5.99 -650.17,6.74 -218.26,0.75 -436.55,-0.37 -654.81,0.21 -109.89,0.29 -218.64,-7.08 -327.93,2.95 -110.04,10.11 -210.36,29.37 -212.5,-137.89 -0.84,-66.22 8.11,-135.05 9.8,-201.93 1.6,-63.01 -3.32,-124.48 -3.52,-187.18l0.98 -2686.35c0,-1024.39 0,-2048.78 0,-3073.17zm4981.12 4899.17c0,36.01 5.21,473.26 -4.22,484.34 -24.1,12.44 -315.72,4.82 -366.7,4.66 -30.35,-0.09 -54.8,6.82 -85.87,6.5 -30.85,-0.31 -61.29,0.13 -92.09,0.38 -55.02,0.45 -40.11,-17.78 -40.12,-173.65 0,-166.91 -7.79,-746.15 8.07,-867.71 4.74,-36.3 42.69,-111.22 63.27,-140.46 35.2,-50.04 124.75,-111.75 182.46,-113.79 93.32,-3.29 141.09,-3.79 223.43,65.81 29.49,24.93 69.89,78.05 83.9,116.22 48.21,131.34 32.94,247.83 32.94,402.87l-5.07 214.83zm-421.44 -4421.78c-51.3,14.51 -387.96,435.14 -450.09,509.36l-875.97 1053.12c-145.92,175.42 -288.73,355.78 -442.03,522.09 -78.35,85 -165.91,207.42 -98.88,337.31 70.65,136.91 201.4,97.86 286.25,6.78 39.04,-41.91 70.78,-89.9 106.2,-135.58 35.36,-45.6 73.79,-86.56 110.79,-130.14 368.06,-433.59 734.45,-885.01 1099.76,-1322.93 35.23,-42.22 73.67,-79.91 108.19,-123.08 130.36,-163.06 180.18,-327.59 341.11,-112.49 136.07,181.87 296.65,358.19 443.86,529.88 296.9,346.29 589.24,700.76 887.96,1045 243.61,280.73 211.02,351.93 589.95,345.32 443.97,-7.74 881.99,-3.95 1324.51,-7.42 75.01,-0.59 150.45,-0.75 225.44,1.62 69.42,2.2 149.48,10.61 217.62,-3.37 134.72,-27.66 188.96,-152.49 127.68,-295.9 -41.29,-96.63 -151.87,-191.13 -217.84,-275.3 -140.36,-179.06 -291.74,-351.09 -435.78,-527.07 -144.83,-176.95 -294.37,-350.68 -440.79,-526.25 -145.74,-174.76 -290.07,-351.38 -435.85,-526.09 -36.08,-43.23 -75.03,-82.86 -110.22,-127.06 -152.49,-191.51 -138.47,-260.4 -460.11,-246.94 -148.28,6.2 -294.57,3.06 -442.84,4.82 -110.42,1.32 -337.24,-25.42 -430.43,13.57 -117.13,49.01 -142.01,228.97 -51.81,319.49 85.38,85.69 296.78,53.4 405.69,50.96 71.88,-1.62 141.92,4.18 213.54,6.4 234.75,7.27 410.5,-61.5 553.81,136.84 131.5,181.99 291.52,361.19 434.76,533.33 145.61,174.99 290.62,350.69 436.14,525.75 72.37,87.06 144.42,169.35 214.93,258.91 34.89,44.3 214.18,210.96 199.72,259.09 -18.36,61.09 -325.06,28.74 -379.31,28.04 -144.87,-1.84 -296.04,0.75 -441.26,2.63 -150.35,1.95 -294.13,-1.32 -445.51,4.41 -305.59,11.55 -293.35,-85.37 -442.95,-261.15 -37.36,-43.9 -77.41,-83.27 -114.24,-128.31 -72.05,-88.11 -147.22,-173.2 -220.49,-260.03l-888.54 -1044.31c-68.53,-80.64 -161.45,-174.83 -220.46,-259.77 -34.77,-50.04 -62.8,-99.61 -111.65,-133.03 -29.55,-20.22 -141.73,-56.69 -170.85,-48.47zm-3275.04 0c-113.33,31.21 -119.9,156.11 -117.2,268.05 3.23,133.73 0.42,272 0.42,406.26 -0.01,270.23 -2.77,541.37 -5.17,811.66 -1.19,133.64 5.74,265.59 5.02,399.88l0.15 1229.1c0,269.18 -3.81,536.97 -4.89,805.81 -1.08,270.47 4.89,540.45 4.89,811.32l0.59 405.07c12.51,140.47 103.89,168.61 207.06,168.4 85.66,-0.16 267.73,10.79 342.12,-4.96 105.26,-22.28 148.58,-141.8 119.1,-256.09 -30.73,-119.1 -150.48,-134.06 -239,-125.41 -62.89,6.14 -102.99,7.32 -103.59,-81.14 -0.46,-66.36 3.39,-137.57 3.32,-206.8l0.45 -3670.42c0,-131.01 6.23,-282.64 0.79,-410.82 -2.04,-47.89 -20.7,-147.73 29.91,-167.74 37.41,-14.79 117.36,8.68 170.64,-2.34 101.61,-21 161.29,-108.7 145.59,-231.71 -17.6,-137.91 -115.27,-157.63 -214.17,-154.97 -82.57,2.23 -278.78,-11.67 -346.01,6.84zm6881.44 3861.37c39.89,33.48 58.47,13.25 97.31,26.8 21.48,7.48 15.26,14.71 43.24,20.8 15.99,3.48 45.15,4.3 57.64,9.82 20.64,9.13 14.27,14.83 44.28,19.57 100.8,15.94 56.85,23.57 97.01,29.21 16.63,2.33 45.23,6.63 60.35,6.66l-261.53 313.24c-9.41,11.63 -27.96,35.94 -37.49,45.44 -41.55,-13.59 -23.81,-68.74 -35.13,-109.2 -8.09,-28.89 -11.92,-16.94 -17.23,-51.36 -3.24,-20.96 -2.55,-49.35 -8.32,-67.79 -9.02,-28.86 -12.79,-12.65 -16.27,-52.49 -9.36,-107.11 -39.97,-98.38 -23.85,-190.71zm-4627.58 5608.53l858.11 0c225.17,0 439.43,5.96 660.09,5.96 220.66,0 434.91,-5.96 660.09,-5.96l756.56 0 179.16 52.01c23.74,12.35 40.35,31.97 59.88,48.99 31.76,27.7 57.82,48.15 82.44,94.09 17.85,33.32 11.74,8.02 26.27,46.71 8.7,23.14 1.04,5.34 11.42,22.4 17.5,28.76 6.38,28.69 17.44,57.09 5.74,14.75 6.23,8.53 11.46,22.34 1.74,4.6 6.74,32.77 6.84,33.75 13.06,126.19 1.39,234.72 11.31,374.68 -321.86,0 -627.58,5.97 -949.51,5.97l-817.49 0c-235.31,0 -459.73,-5.97 -690.55,-5.97l-1254.17 5.97c-17.51,0 -19.66,-4.42 -35.55,-5.97 0,-97.15 -6.71,-213.71 3.52,-300.27 3.19,-27.04 5.48,-44.44 6.56,-69.89 1.64,-38.99 3.03,-34.79 15.15,-59.78 11.86,-24.39 6.86,-36.03 17.45,-57.08 16.7,-33.17 60.1,-103.46 84.01,-128.06l36.83 -34.3c3.55,-3.02 4.99,-4.45 8.46,-7.95 18.5,-18.66 50.03,-40.69 74.75,-49.41 29.83,-10.54 17.66,-18.17 44.55,-25.23l114.93 -20.08zm-3913.55 -11446.43l10914.28 0c461.49,0 839.06,443.73 839.06,986.09l0 7625.85c0,542.36 -377.57,986.09 -839.06,986.09l-4406.07 0c0.11,237.12 5.07,457.29 5.07,696.44 0,122.75 -5.07,227.26 -5.07,352.15 0,117.39 0,234.77 0,352.15 0,34.36 -1.07,31.06 15.24,59.69 64.05,0 305.16,-8.51 357.73,3.25 36.52,8.18 63.4,13.72 104.45,14.51 34.96,0.68 41.29,16.87 70.28,24.81 85.53,23.45 27.17,15.18 66.98,28.71 23.31,7.92 22.12,-0.13 41.58,16.78 27.12,23.57 76.4,45.44 121.54,89.9 0.81,0.8 1.92,1.98 2.74,2.75l51.66 46.71c0.77,0.83 1.85,2.06 2.6,2.92 31.64,36.34 62.69,74.4 88.74,116.53 0.63,1.02 1.44,2.51 2.08,3.51l31.75 46.25c9.74,12.3 6.21,5.29 11.83,21.9l36.86 82c12.5,20.61 10.62,42.39 19.12,61.09 10.47,23.06 14.97,6.66 19.52,48.68l13.93 55.26c8.22,17.26 7.15,31.94 7.69,56.61 0.67,30.35 4.95,33.34 5.25,65.46 0.21,21.57 -1.5,43.58 0.54,65.01 12.23,128.07 4.34,304.31 4.34,436.59 0,84.56 -2.94,138.2 -54.85,192.19 -15.98,16.62 -16.51,19.49 -37.57,27.45 -28.94,10.94 -36.89,25.08 -70.06,25.08l-4092.53 0c-26.66,0 -31.29,-12.37 -52.2,-22.21 -4.65,-2.19 -9.86,-3 -15.75,-5.35 -25.38,-10.12 -56.27,-51.24 -69.06,-79.97 -4.41,-9.91 -7.79,-33.3 -8.9,-43.26 -14.95,-135.07 -6.42,-279.56 -6.42,-416.23l5.24 -137.09c1.11,-47.31 0.99,-91.2 5.32,-136.99 3.24,-34.28 13.52,-30 18.31,-50.11 5.82,-24.44 0.52,-40.85 9.36,-60.62 5.71,-12.79 8.58,-10.67 13.04,-20.48 7.74,-17.02 2.4,-7.88 5.93,-28.85 2.87,-17.02 11.55,-26.78 17.46,-39.16l57.62 -117.3c6.95,-10.92 8.31,-10.6 14.19,-19.12 3,-4.34 2.24,-2.7 6.23,-10.6l109.28 -140.12c9.82,-11.51 19.17,-19.66 37.59,-21.46 0.93,-13.18 -1.66,-5.06 3.18,-14.16l76.01 -59.86c13.18,-11.61 10.7,-5.92 25.03,-12.37 24.28,-10.92 10.75,-14.2 36.06,-23.26 10.34,-3.7 15.69,-2.54 24.37,-7.16 18.71,-9.97 18.83,-18.71 41.21,-23.19 80.38,-16.09 1.94,-20.8 114.04,-27.11 34.55,-1.95 71.58,-14.99 101.74,-17.69 62.87,-5.62 317.25,8.2 338.91,-1.52l16.32 -16.62c0,-287.23 -5.07,-558.3 -5.07,-841.58 0,-203 4.94,-394.22 5.07,-600.94l-4253.74 0c-461.49,0 -839.07,-443.73 -839.07,-986.09l0 -7625.85c0,-542.36 377.58,-986.09 839.07,-986.09zm6178.17 9598.03l-1165.33 0 0 -390.93 141.64 0c6.4,-6.97 8.81,-10.87 23.4,-10.87l2741.89 0 0 10.87 2743.87 0c424.76,0 772.29,-408.42 772.29,-907.61l0 -7018.94c0,-499.19 -347.53,-907.61 -772.29,-907.61l-10438.53 0c-424.76,0 -772.29,408.42 -772.29,907.61l0 7018.94c0,499.19 347.53,907.61 772.29,907.61l2769.4 0 0 -10.87 1457.26 0c15.09,0 25.67,4.38 35.67,10.87l100.15 0 0 390.93 -2.23 0c0.72,36.93 1.55,73.87 2.23,111.39l0 370.68 0.24 0 -4.03 948.5c0,19.3 18.43,29.85 35.54,29.85l832.74 0.01c51.94,0.14 87.54,-5.98 142.17,-5.98 148.7,0.01 303.9,-3.4 451.88,6 23.92,1.51 51.95,0.04 76.4,0.21 35.23,0.26 35.16,-2.03 55.63,-18.15 0,-159.1 -18.85,-602.02 -2.93,-725.66 10.54,-81.85 3.24,-577.48 2.95,-716.87zm2732.99 -3037.83c59.46,73.85 137.07,156.74 199.94,234.87 30.39,37.78 70.95,87.56 116.28,102.02 61.46,19.61 144.59,-23.05 173.61,-89.44 12.27,-28.09 32.27,-16.31 22.42,-152.87 -3.4,-47.18 -59.76,-106.3 -85.72,-137.95 -44.95,-54.83 -176.46,-195.87 -196.92,-241.76 50.45,-84.02 261.48,-283.71 279.74,-357.57 7.45,-30.15 6.33,-123.44 -8.13,-150.81 -46.87,-88.7 -100.85,-109 -188.55,-124.53 -22.38,-3.97 -32.68,-14.33 -52.84,-21.44 -23.73,-8.37 -43.22,-3.57 -66.51,-11.35 -19,-6.34 -31.53,-17.78 -52.49,-21.85 -24.95,-4.84 -34.93,0.35 -60.04,-12.98 -69.23,-36.75 -25.54,5.28 -114.28,-38.73 -22.74,-11.28 -39.06,-5.77 -62.1,-10.57 -24.89,-5.18 -31.78,-20.61 -54.53,-25.44 -23.38,-4.96 -37.55,1.52 -61.75,-10.97 -79.12,-40.87 -38.56,-0.65 -113.77,-39.33 -27.41,-14.1 -38.45,-7.18 -65.53,-12.5 -21.26,-4.18 -33.94,-16.04 -52.5,-21.85 -22.5,-7.05 -42.53,-2.3 -66.63,-11.21 -77.87,-28.8 -161.09,-43.97 -222.59,44.28 -80.21,115.11 -28.01,147.9 -20.98,259.88 2.11,33.68 6.97,35.07 16.51,64.13 10.78,32.79 3.86,48.38 9.66,78.15 4.3,22.03 16.21,34.65 19.99,60.05 4.82,32.37 -2.93,44.29 11.14,76.4 23.45,53.49 8.88,73.42 32.55,134.81 10.38,26.95 6.48,43.2 11.24,70.32 4.48,25.44 16.04,39.83 19.87,66.16 4.07,27.96 0.3,43.21 9.96,71.83 31.35,92.84 3.63,53.25 31.8,135.69 11.09,32.48 6.35,45.29 11.31,76.22 3.57,22.23 14.02,39.59 18.71,61.55 7.22,33.73 14.52,139.13 48.45,199.67 43.09,76.86 123.17,125.11 199.11,80.83 64.5,-37.61 106.56,-103.38 157.41,-161.12 33.29,-37.81 118.48,-154.09 156.15,-162.6zm-2580.08 327.42c-27.72,2.77 -44.07,6.06 -76.16,5.98 -106.44,-0.28 -518.73,12.2 -559.67,-10.62 -9.43,-47.07 -4.98,-787.95 -3.77,-896.63 0.54,-48.51 -5.03,-93.1 -5.03,-143.26 0,-65.27 -15.8,-72.44 -24.68,-126.16 -24.9,-150.83 -162.18,-331.27 -286.33,-415.37 -31.15,-21.1 -58.49,-30.18 -86.59,-47.42 -23.94,-14.69 -18.78,-12.3 -45.96,-17.6 -69.14,-13.49 20.73,-25.75 -176.13,-25.75 -29.46,0 -100.41,-4.19 -124.94,2.37 -16.67,4.46 -26.69,15.46 -43.43,20.56 -23.45,7.15 -28.31,1.22 -52.33,16.07 -64.16,39.66 -93.54,41.53 -166.54,108.61 -86.55,79.53 -191.65,235.49 -211.96,353.6 -8.75,50.92 -23.57,57.7 -25.33,119.41 -10.09,352.68 -5.09,703.44 -5.09,1056.21 -73.54,5.85 -150.15,9.78 -223.77,6.33 -38.07,-1.79 -71.95,-4.06 -110.3,-1.52 -165.7,10.96 -204.2,32.8 -190.14,-182.39 5.77,-88.43 1.08,-180.57 1.22,-269.98 0.7,-438.95 -6.45,-914.92 1.13,-1349.93 1.22,-69.65 1.16,-164.45 -38.79,-221.28 -79.08,-112.46 -252.31,-81.03 -285.65,80.86 -13.17,63.9 -6.89,435.5 -6.67,529.71 0.42,180.09 -3.87,357.46 -5.23,536.88 -1.35,178.11 4.96,353.5 5.58,530.7 0.38,107.81 -5.23,463.86 -0.26,537.37 14.41,213.5 144.49,199.92 289.18,197.21 153.31,-2.88 308.61,-0.11 462.16,-0.11 1067.21,0 2142.27,-4.89 3209.07,0.06 75.79,0.35 154.12,2.37 229.52,1.21 60.32,-0.92 134.37,-8.49 172.34,-71.52 50.69,-84.19 57.18,-289.66 -129.87,-314.94 -68.75,-9.29 -152.73,-2.07 -224.28,-5.09 -232.91,-9.81 -460.43,7.9 -680.84,0.11 -54.6,-1.93 -181.07,23.35 -221.07,-8.3 -48.9,-38.69 -22.71,-184.94 -22.22,-248.39l-2.37 -1345.81c-0.57,-86.39 5.67,-184.4 0.16,-268.73 -10.8,-165.69 -125.26,-273.78 -257.81,-190.98 -103.02,64.36 -70.33,274.98 -76.24,448.42 -5.87,172.35 -3.08,365.81 1.9,538.7 5.53,192.31 7.56,897.62 -2.79,1071.43zm-6133.73 -5776.35c-49.86,12.54 -118.79,84.82 -138.39,141.69 -28.57,82.86 -21.92,200.62 -18.23,288.88 8.9,212.21 4.19,410.87 1.81,622.43 -4.62,411.72 3.77,820.91 2.52,1232.42 -1.25,411.29 2.68,823.15 -0.5,1234.33 -1.59,205.14 -6.61,409.05 -4.4,614.37 2.2,205.37 5.57,409.9 5.26,615.37 -0.88,597.76 8.49,1258.84 -8.28,1852.95 -4.74,167.91 -23.56,392.64 149.82,444.93 118.25,35.67 383.56,9.42 519.46,10.41l1582.89 1.54c2459.25,0 4918.49,0 7377.74,0 257.79,0 538.45,-6.49 793.71,1.79 80.4,2.61 178.01,11 256.39,-8.48 181.23,-45.03 166.06,-249.43 159.64,-423.24 -7.76,-210.21 -6.49,-409.76 -5.99,-619.57 0.98,-413.65 -2.7,-827.7 -0.07,-1241.29 5.2,-822.11 -3.64,-1643.59 -0.52,-2465.71 0.77,-202.88 5.38,-405.63 5.84,-608.35 0.91,-399.63 -14.76,-840.34 -3.47,-1237.51 4.72,-166.18 31.65,-400.04 -142.72,-452.88 -89.46,-27.11 -397.38,-7.81 -520.83,-8.51l-9753.3 -2.21c-52.15,0.54 -217.81,-3.58 -258.39,6.63z"/>
 </g>
</svg>
