<?xml version="1.0" encoding="UTF-8"?>
<!DOCTYPE svg PUBLIC "-//W3C//DTD SVG 1.0//EN" "http://www.w3.org/TR/2001/REC-SVG-20010904/DTD/svg10.dtd">
<!-- Creator: CorelDRAW 2020 (64 Bit Versão de avaliação) -->
<svg xmlns="http://www.w3.org/2000/svg" xml:space="preserve" width="74.8849mm" height="74.8849mm" version="1.0" style="shape-rendering:geometricPrecision; text-rendering:geometricPrecision; image-rendering:optimizeQuality; fill-rule:evenodd; clip-rule:evenodd"
viewBox="0 0 423.34 423.34"
 xmlns:xlink="http://www.w3.org/1999/xlink"
 xmlns:xodm="http://www.corel.com/coreldraw/odm/2003">
 <defs>
  <style type="text/css">
   <![CDATA[
    .fil0 {fill:#E6E7E8}
    .fil1 {fill:#EC268F}
   ]]>
  </style>
 </defs>
 <g id="Layer_x0020_1">
  <metadata id="CorelCorpID_0Corel-Layer"/>
  <g id="_2825302326800">
   <polygon class="fil0" points="211.36,423.34 68.61,280.58 84.88,264.31 211.36,390.79 390.79,211.37 374.4,194.98 321.62,247.76 305.34,264.04 228.07,341.31 211.79,357.59 195.52,341.31 117.89,263.68 101.61,247.4 117.89,231.13 131.51,217.5 147.79,233.78 134.16,247.4 211.79,325.04 289.07,247.76 211.44,170.13 175.6,205.97 159.32,189.69 195.16,153.85 211.44,137.58 227.71,153.85 305.34,231.48 358.12,178.7 374.4,162.43 390.68,178.7 407.06,195.09 423.34,211.37 407.06,227.64 227.64,407.06 211.59,423.12 "/>
   <polygon class="fil1" points="211.97,0 354.73,142.76 338.46,159.03 211.97,32.55 32.55,211.97 48.94,228.36 101.72,175.58 118,159.3 195.27,82.03 211.55,65.75 227.82,82.03 305.45,159.66 321.73,175.93 305.45,192.21 291.83,205.84 275.55,189.56 289.18,175.93 211.55,98.3 134.27,175.58 211.9,253.21 247.74,217.37 264.02,233.65 228.18,269.49 211.9,285.76 195.63,269.49 118,191.85 65.21,244.64 48.94,260.91 32.66,244.64 16.28,228.25 -0,211.97 16.28,195.7 195.7,16.28 211.75,0.22 "/>
  </g>
 </g>
</svg>
